<svg width="14" height="12" viewBox="0 0 14 12" fill="none" xmlns="http://www.w3.org/2000/svg">
<path d="M7.27678 1.33236H13.0007C13.3689 1.33236 13.6673 1.63084 13.6673 1.99902V11.3324C13.6673 11.7006 13.3689 11.999 13.0007 11.999H1.00065C0.632464 11.999 0.333984 11.7006 0.333984 11.3324V0.66569C0.333984 0.297503 0.632464 -0.000976562 1.00065 -0.000976562H5.94345L7.27678 1.33236ZM6.33398 6.69902C6.22625 6.67716 6.11478 6.66569 6.00065 6.66569C5.08018 6.66569 4.33398 7.41189 4.33398 8.33236C4.33398 9.25282 5.08018 9.99902 6.00065 9.99902C6.92112 9.99902 7.66732 9.25282 7.66732 8.33236V5.33236H9.66732V3.99902H6.33398V6.69902Z" fill="#091332"/>
</svg>
