<svg width="22" height="22" viewBox="0 0 22 22" fill="none" xmlns="http://www.w3.org/2000/svg">
<path d="M18.8258 0H4.47801C3.39742 0 2.52148 0.875938 2.52148 1.95652V18.0435C2.52148 19.124 3.39742 20 4.47801 20H18.8258C19.186 20 19.478 19.708 19.478 19.3478V0.652187C19.478 0.291992 19.186 0 18.8258 0ZM18.1736 18.6957H4.47801C4.11785 18.6957 3.82582 18.4037 3.82582 18.0435C3.82582 17.6839 4.11836 17.3913 4.47801 17.3913C11.3244 17.3913 11.4005 17.3913 18.1737 17.3913L18.1736 18.6957Z" fill="#DC2F3D"/>
<path d="M5.73594 16.3354C5.73594 13.4331 8.09809 11.0709 11.0005 11.0709C13.9029 11.0709 16.265 13.4331 16.265 16.3354C16.265 19.2378 13.9029 21.6 11.0005 21.6C8.09809 21.6 5.73594 19.2378 5.73594 16.3354Z" fill="#0A9876" stroke="#F0F8FF" stroke-width="0.8"/>
<path d="M10.357 14.2514L10.3678 16.3196C10.37 16.7307 10.6191 17.1003 10.9994 17.2565L12.7463 17.9741C13.0003 18.0784 13.287 17.9291 13.3472 17.6612C13.3921 17.4612 13.294 17.2564 13.1099 17.1661L11.3438 16.2999C11.2432 16.2505 11.1795 16.1482 11.1795 16.0362L11.1796 14.2514C11.1796 14.0205 10.9992 13.8401 10.7683 13.8401C10.5374 13.8401 10.357 14.0205 10.357 14.2514Z" fill="white"/>
</svg>
