<svg width="31" height="38" viewBox="0 0 31 38" fill="none" xmlns="http://www.w3.org/2000/svg">
<path d="M30.5779 30.68V0.137817H5.20693C2.77969 0.137817 0.8125 2.10519 0.8125 4.53243V33.2434C0.8125 35.6706 2.77969 37.6378 5.20693 37.6378H30.5779V35.0744C29.3644 35.0744 28.3805 34.0907 28.3805 32.8772C28.3805 31.6637 29.3644 30.68 30.5779 30.68ZM9.1765 10.3185H14.6697V3.7707H16.8669V10.3185H22.3602V12.5157H16.8669V26.8713H14.6697V12.5157H9.1765V10.3185ZM26.7746 35.0744H5.87775C5.74377 35.0744 5.61254 35.0627 5.48534 35.0387C4.45858 34.8537 3.68054 33.9566 3.68054 32.8772C3.68054 32.2707 3.92669 31.7212 4.32423 31.3235C4.63416 31.0139 5.03556 30.7964 5.48534 30.7155C5.61254 30.6915 5.74377 30.68 5.87775 30.68H26.7746C26.3996 31.3264 26.1833 32.0772 26.1833 32.8772C26.1833 33.677 26.3996 34.4278 26.7746 35.0744Z" fill="#DC2F3D"/>
</svg>
