<svg width="121" height="120" viewBox="0 0 121 120" fill="none" xmlns="http://www.w3.org/2000/svg">
<rect x="0.5" width="120" height="120" rx="60" fill="#FFF7E6"/>
<g clip-path="url(#clip0_1_34548)">
<path d="M60.6367 25C41.4007 25 25.5 40.627 25.5 59.8633C25.5 79.0996 41.4007 95 60.6367 95C79.8728 95 95.5 79.0996 95.5 59.8633C95.5 40.627 79.8728 25 60.6367 25Z" fill="#FCB100"/>
<path d="M95.5 59.8633C95.5 79.0996 79.8728 95 60.6367 95V25C79.8728 25 95.5 40.627 95.5 59.8633Z" fill="#FCB100"/>
<path d="M60.6367 33.2031C45.9529 33.2031 33.7031 45.1796 33.7031 59.8633C33.7031 74.547 45.9529 86.7969 60.6367 86.7969C75.3206 86.7969 87.2969 74.547 87.2969 59.8633C87.2969 45.1796 75.3206 33.2031 60.6367 33.2031Z" fill="#FF8A0A"/>
<path d="M87.2969 59.8633C87.2969 74.547 75.3206 86.7969 60.6367 86.7969V33.2031C75.3206 33.2031 87.2969 45.1796 87.2969 59.8633Z" fill="#FF8A0A"/>
<path d="M64.7383 57.8125H62.6875V49.6094H64.7383C65.8869 49.6094 66.7891 50.5116 66.7891 51.6602C66.7891 54.3671 70.8906 54.3671 70.8906 51.6602C70.8906 48.2557 68.1429 45.5078 64.7383 45.5078H62.6875V43.457C62.6875 42.1034 61.6621 41.4062 60.6367 41.4062C59.6113 41.4062 58.5859 42.1034 58.5859 43.457V45.5078H56.2617C52.8571 45.5078 50.1094 48.2557 50.1094 51.6602V55.7617C50.1094 59.1662 52.8571 61.9141 56.2617 61.9141H58.5859V70.3906H56.2617C55.1131 70.3906 54.2109 69.4884 54.2109 68.3398C54.2109 65.6329 50.1094 65.6329 50.1094 68.3398C50.1094 71.7443 52.8571 74.4922 56.2617 74.4922H58.5859V76.543C58.5859 77.8966 59.6113 78.5938 60.6367 78.5938C61.6621 78.5938 62.6875 77.8966 62.6875 76.543V74.4922H64.7383C68.1429 74.4922 70.8906 71.7443 70.8906 68.3398V63.9648C70.8906 60.5604 68.1429 57.8125 64.7383 57.8125ZM58.5859 57.8125H56.2617C55.1131 57.8125 54.2109 56.9103 54.2109 55.7617V51.6602C54.2109 50.5116 55.1131 49.6094 56.2617 49.6094H58.5859V57.8125ZM66.7891 68.3398C66.7891 69.4884 65.8869 70.3906 64.7383 70.3906H62.6875V61.9141H64.7383C65.8869 61.9141 66.7891 62.8163 66.7891 63.9648V68.3398Z" fill="white"/>
<path d="M64.7383 57.8125H62.6875V49.6094H64.7383C65.8869 49.6094 66.7891 50.5116 66.7891 51.6602C66.7891 54.3671 70.8906 54.3671 70.8906 51.6602C70.8906 48.2557 68.1429 45.5078 64.7383 45.5078H62.6875V43.457C62.6875 42.1034 61.6621 41.4062 60.6367 41.4062V78.5938C61.6621 78.5938 62.6875 77.8966 62.6875 76.543V74.4922H64.7383C68.1429 74.4922 70.8906 71.7443 70.8906 68.3398V63.9648C70.8906 60.5604 68.1429 57.8125 64.7383 57.8125ZM66.7891 68.3398C66.7891 69.4884 65.8869 70.3906 64.7383 70.3906H62.6875V61.9141H64.7383C65.8869 61.9141 66.7891 62.8163 66.7891 63.9648V68.3398Z" fill="white"/>
</g>
<defs>
<clipPath id="clip0_1_34548">
<rect width="70" height="70" fill="white" transform="translate(25.5 25)"/>
</clipPath>
</defs>
</svg>
