<svg width="40" height="40" viewBox="0 0 40 40" fill="none" xmlns="http://www.w3.org/2000/svg">
<path d="M34.7272 20.9697C33.8787 19.5757 32.7878 19.2727 32.0605 19.2727C30.1817 19.2727 29.1514 20.8485 28.3029 21.2727C22.2423 24.9091 11.5756 13.8182 17.6968 1.45453C17.8181 1.27271 17.7575 1.03028 17.6362 0.848466C17.515 0.666648 17.2726 0.606042 17.0302 0.666648C16.7272 0.727254 9.39382 2.78786 7.03018 8.12119C6.1817 10.1212 6.12109 12.2424 6.84836 14.5454L5.87867 13.8182C5.69685 13.697 5.45442 13.6363 5.212 13.8182C5.03018 13.9394 4.90897 14.1818 4.96958 14.4242C4.96958 14.5454 5.45442 16.9091 6.96958 18.7273L6.60594 18.6666C6.42412 18.606 6.2423 18.6666 6.06048 18.8485C5.93927 18.9697 5.87867 19.1515 5.87867 19.3939C5.87867 19.4545 6.2423 21.1515 8.42412 22.3636L7.75745 22.4242C7.57564 22.4848 7.39382 22.606 7.33321 22.7879C7.27261 22.9697 7.27261 23.1515 7.39382 23.3333C7.51503 23.5151 10.1211 27.6363 14.4847 28.7273C11.0908 29.8788 6.2423 31.4545 4.60594 31.4545H4.54533C4.2423 31.4545 3.99988 31.6363 3.93927 31.8788C3.87867 32.1818 3.99988 32.4242 4.2423 32.5454L6.36352 33.5151L5.15139 34.7273C4.96958 34.9091 4.90897 35.1515 5.03018 35.3939C5.15139 35.6363 5.39382 35.7576 5.63624 35.697L7.57564 35.3939L7.27261 36.8485C7.212 37.0909 7.27261 37.2727 7.45442 37.4545C7.63624 37.5757 7.87867 37.6363 8.06048 37.5757L9.45442 36.9697L9.51503 38.0606C9.51503 38.303 9.69685 38.4848 9.87867 38.606C9.93927 38.6666 11.9393 39.4545 14.3635 39.4545C16.3635 39.4545 18.0605 38.9091 19.4544 37.7576C19.6968 37.5757 19.7575 37.2121 19.5756 36.9697C19.515 36.8485 17.9393 34.6666 19.3938 31.8182C19.9393 31.7576 21.0302 31.6363 22.4241 31.3939C26.4241 30.6666 29.9999 28.2424 32.4847 24.606C33.7575 22.7273 34.909 23.3333 35.515 23.3333C35.8181 23.3333 36.1211 23.0909 36.1211 22.7273C36.0605 22.1818 35.4544 22.1212 34.7272 20.9697ZM31.515 22.303C31.1514 22.303 30.909 22 30.909 21.697C30.909 21.3333 31.212 21.0909 31.515 21.0909C31.8787 21.0909 32.1211 21.3939 32.1211 21.697C32.1211 22.0606 31.8787 22.303 31.515 22.303Z" fill="#DC2F3D"/>
<path d="M29.8186 18.7272C28.4247 19.3333 28.1216 20.8484 25.8186 20.8484C23.6974 20.8484 21.2731 19.2727 19.5762 16.8484C19.758 13.3939 21.0307 7.87872 26.0004 3.75751C26.1822 3.57569 26.4247 3.57569 26.6671 3.6969C26.8489 3.81812 26.9701 4.06054 26.9701 4.30296L26.6671 5.51509L27.5156 5.15145C27.758 5.03024 28.0004 5.09084 28.1822 5.27266C28.3641 5.45448 28.4247 5.6969 28.3034 5.93933C28.3034 5.93933 27.8186 7.15145 27.9398 8.90903C28.0004 9.99993 28.3641 11.1514 29.0913 12.303C29.8792 13.5757 30.9701 15.9999 29.8186 18.7272Z" fill="#DC2F3D"/>
</svg>
