<svg width="14" height="15" viewBox="0 0 14 15" fill="none" xmlns="http://www.w3.org/2000/svg">
<path d="M4.04437 7.30613C4.04837 7.23013 4.05237 7.15813 4.05637 7.09013C4.08037 6.69813 4.16437 6.31413 4.30837 5.95013C5.46437 3.03413 5.88037 1.28613 6.01237 0.478131C6.03237 0.350131 6.04437 0.298131 6.06437 0.258131C6.10037 0.194131 6.16437 0.142131 6.22837 0.114131L6.23843 0.110063C6.25723 0.102433 6.2808 0.092865 6.30437 0.0861313C6.40837 0.0501313 6.51637 0.0221313 6.58837 0.00613126C6.65237 -0.00986875 6.72037 0.00613125 6.77237 0.0461313C6.82037 0.0861313 6.84837 0.150131 6.84837 0.214131V3.66613C6.69637 3.69013 6.53637 3.74613 6.39637 3.82613C6.17237 3.95413 6.03237 4.13013 6.00037 4.31413C5.84037 5.35013 5.48437 7.05813 5.23237 7.42613C5.19637 7.48213 5.20837 7.55813 5.26437 7.59413C5.28437 7.61013 5.30837 7.61413 5.33237 7.61413C5.37237 7.61413 5.40837 7.59413 5.43237 7.56213C5.72037 7.13813 6.08037 5.36613 6.23637 4.35013C6.26437 4.17013 6.50037 4.01013 6.74837 3.93413C6.79637 3.91813 6.84437 3.95413 6.84437 4.00613V11.1301C6.84437 11.1501 6.82837 11.3101 6.72837 11.5021C6.58837 11.7781 6.35237 11.9901 6.02837 12.1381C5.90457 12.195 5.76397 12.2547 5.61127 12.3195L5.52037 12.3581L5.48803 12.372C4.96453 12.5963 4.38867 12.8431 4.01637 13.0821L3.13237 10.5341C3.47237 10.1101 3.70837 9.57813 3.85237 8.91013C3.98711 8.32756 4.01977 7.74499 4.0437 7.31802L4.04437 7.30613Z" fill="#DC2F3D"/>
<path d="M9.96814 7.08968C9.97214 7.15768 9.97614 7.22968 9.98014 7.30568C10.0001 7.73368 10.0321 8.32168 10.1681 8.91368C10.3121 9.58168 10.5481 10.1137 10.8881 10.5377L10.0041 13.0857C9.63184 12.8466 9.05606 12.5999 8.53257 12.3756L8.50014 12.3617L8.40926 12.3231C8.25655 12.2583 8.11595 12.1986 7.99214 12.1417C7.66814 11.9937 7.43214 11.7817 7.29214 11.5057C7.19214 11.3137 7.17614 11.1537 7.17614 11.1337V4.00968C7.17614 3.95768 7.22414 3.92168 7.27214 3.93768C7.52014 4.01368 7.75614 4.17368 7.78414 4.35368C7.94014 5.36968 8.30014 7.14168 8.58814 7.56568C8.61214 7.59768 8.64814 7.61768 8.68814 7.61768C8.71214 7.61768 8.73614 7.61368 8.75614 7.59768C8.81214 7.56168 8.82414 7.48568 8.78814 7.42968C8.53614 7.06168 8.18014 5.35368 8.02014 4.31768C7.98814 4.13368 7.84814 3.95768 7.62414 3.82968C7.48414 3.74968 7.32414 3.69368 7.17214 3.66968V0.217682C7.17214 0.153682 7.20014 0.0896824 7.24814 0.0496824C7.30014 0.00968239 7.36814 -0.00631761 7.43214 0.00968239C7.50414 0.0256824 7.61214 0.0536824 7.71614 0.0896824C7.73971 0.0964161 7.76328 0.105984 7.78207 0.113615L7.79214 0.117682C7.85614 0.145682 7.92014 0.197682 7.95614 0.261682C7.97614 0.301682 7.98814 0.353682 8.00814 0.481682C8.14414 1.28968 8.56014 3.03768 9.71614 5.94968C9.86014 6.31368 9.94414 6.69768 9.96814 7.08968Z" fill="#DC2F3D"/>
<path d="M13.8042 10.6613L12.3842 14.7453L10.0642 13.8773L11.4842 9.79332L13.8042 10.6613Z" fill="#DC2F3D"/>
<path d="M0.219727 10.662L1.63573 14.746L3.95573 13.878L2.53573 9.79403L0.219727 10.662Z" fill="#DC2F3D"/>
</svg>
