<svg width="22" height="22" viewBox="0 0 22 22" fill="none" xmlns="http://www.w3.org/2000/svg">
<path d="M6.93564 10.0459C6.94114 9.94143 6.94664 9.84243 6.95214 9.74893C6.98514 9.20993 7.10064 8.68193 7.29864 8.18143C8.88814 4.17193 9.46014 1.76843 9.64164 0.65743C9.66914 0.48143 9.68564 0.40993 9.71314 0.35493C9.76264 0.26693 9.85064 0.19543 9.93864 0.15693L9.95248 0.151337C9.97833 0.140845 10.0107 0.127689 10.0431 0.11843C10.1861 0.0689305 10.3346 0.0304305 10.4336 0.00843048C10.5216 -0.0135695 10.6151 0.00843047 10.6866 0.0634305C10.7526 0.11843 10.7911 0.20643 10.7911 0.29443V5.04093C10.5821 5.07393 10.3621 5.15093 10.1696 5.26093C9.86164 5.43693 9.66914 5.67893 9.62514 5.93193C9.40514 7.35643 8.91564 9.70493 8.56914 10.2109C8.51964 10.2879 8.53614 10.3924 8.61314 10.4419C8.64064 10.4639 8.67364 10.4694 8.70664 10.4694C8.76164 10.4694 8.81114 10.4419 8.84414 10.3979C9.24014 9.81493 9.73514 7.37843 9.94964 5.98143C9.98814 5.73393 10.3126 5.51393 10.6536 5.40943C10.7196 5.38743 10.7856 5.43693 10.7856 5.50843V15.3039C10.7856 15.3314 10.7636 15.5514 10.6261 15.8154C10.4336 16.1949 10.1091 16.4864 9.66364 16.6899C9.49341 16.7681 9.3001 16.8502 9.09012 16.9393L8.96514 16.9924L8.92067 17.0115C8.20086 17.3199 7.40906 17.6592 6.89714 17.9879L5.68164 14.4844C6.14914 13.9014 6.47364 13.1699 6.67164 12.2514C6.85691 11.4504 6.90182 10.6494 6.93472 10.0623L6.93564 10.0459Z" fill="#DC2F3D"/>
<path d="M15.0808 9.74831C15.0863 9.84181 15.0918 9.94081 15.0973 10.0453C15.1248 10.6338 15.1688 11.4423 15.3558 12.2563C15.5538 13.1748 15.8783 13.9063 16.3458 14.4893L15.1303 17.9928C14.6184 17.6641 13.8267 17.3249 13.1069 17.0164L13.0623 16.9973L12.9374 16.9442C12.7274 16.8551 12.5341 16.773 12.3638 16.6948C11.9183 16.4913 11.5938 16.1998 11.4013 15.8203C11.2638 15.5563 11.2418 15.3363 11.2418 15.3088V5.51331C11.2418 5.44181 11.3078 5.39231 11.3738 5.41431C11.7148 5.51881 12.0393 5.73881 12.0778 5.98631C12.2923 7.38331 12.7873 9.81981 13.1833 10.4028C13.2163 10.4468 13.2658 10.4743 13.3208 10.4743C13.3538 10.4743 13.3868 10.4688 13.4143 10.4468C13.4913 10.3973 13.5078 10.2928 13.4583 10.2158C13.1118 9.70981 12.6223 7.36131 12.4023 5.93681C12.3583 5.68381 12.1658 5.44181 11.8578 5.26581C11.6653 5.15581 11.4453 5.07881 11.2363 5.04581V0.299313C11.2363 0.211313 11.2748 0.123313 11.3408 0.0683133C11.4123 0.0133133 11.5058 -0.00868671 11.5938 0.0133133C11.6928 0.0353133 11.8413 0.0738133 11.9843 0.123313C12.0167 0.132572 12.0491 0.145728 12.075 0.15622L12.0888 0.161813C12.1768 0.200313 12.2648 0.271813 12.3143 0.359813C12.3418 0.414813 12.3583 0.486313 12.3858 0.662313C12.5728 1.77331 13.1448 4.17681 14.7343 8.18081C14.9323 8.68131 15.0478 9.20931 15.0808 9.74831Z" fill="#DC2F3D"/>
<path d="M20.3554 14.6593L18.4029 20.2748L15.2129 19.0813L17.1654 13.4658L20.3554 14.6593Z" fill="#DC2F3D"/>
<path d="M1.67676 14.6603L3.62376 20.2758L6.81376 19.0823L4.86126 13.4668L1.67676 14.6603Z" fill="#DC2F3D"/>
<path d="M5.73594 16.3354C5.73594 13.4331 8.09809 11.0709 11.0005 11.0709C13.9029 11.0709 16.265 13.4331 16.265 16.3354C16.265 19.2378 13.9029 21.6 11.0005 21.6C8.09809 21.6 5.73594 19.2378 5.73594 16.3354Z" fill="#0A9876" stroke="#F0F8FF" stroke-width="0.8"/>
<path d="M13.2935 15.3366L10.6914 17.9183C10.5384 18.0713 10.2935 18.0815 10.1302 17.9285L8.75268 16.6734C8.58942 16.5203 8.57921 16.2652 8.72207 16.1019C8.87513 15.9387 9.13023 15.9285 9.29349 16.0815L10.3853 17.0815L12.7118 14.755C12.8751 14.5918 13.1302 14.5918 13.2935 14.755C13.4567 14.9183 13.4567 15.1734 13.2935 15.3366Z" fill="white"/>
</svg>
