<svg width="40" height="40" viewBox="0 0 40 40" fill="none" xmlns="http://www.w3.org/2000/svg">
<rect width="40" height="40" rx="20" fill="#0A9876"/>
<path d="M30.5515 28.9297H9.44839C8.64847 28.9297 8 28.2812 8 27.4813V12.5187C8.00005 11.7188 8.64852 11.0703 9.44839 11.0703H30.5515C31.3514 11.0703 31.9999 11.7188 31.9999 12.5187V27.4813C31.9999 28.2812 31.3514 28.9297 30.5515 28.9297Z" fill="#FAFAFA"/>
<path d="M10.8975 28.929L30.7508 14.186V28.929H10.8975Z" fill="#F5F5F5"/>
<path d="M10.8974 28.9297H9.44839C8.64847 28.9297 8 28.2812 8 27.4813V12.5187C8.00005 11.7188 8.64852 11.0703 9.44839 11.0703H10.8974V28.9297Z" fill="#F44336"/>
<path d="M9.44922 11.0703H10.8979V28.9297H9.44922V11.0703Z" fill="#E53935"/>
<path d="M29.1025 28.9297H30.5515C31.3515 28.9297 31.9999 28.2812 31.9999 27.4813V12.5187C31.9999 11.7188 31.3515 11.0703 30.5515 11.0703H29.1025V28.9297Z" fill="#F44336"/>
<path d="M30.5512 11.0703H29.1025C29.9026 11.0703 30.5512 11.7186 30.5512 12.5184V27.4816C30.5512 28.2814 29.9026 28.9297 29.1025 28.9297H30.5512C31.3513 28.9297 31.9999 28.2814 31.9999 27.4816V12.5184C31.9999 11.7186 31.3513 11.0703 30.5512 11.0703Z" fill="#E53935"/>
<path d="M9.44922 11.0703H30.5517V12.5197L20.0005 20.3713L9.44922 12.1768V11.0703Z" fill="#FAFAFA"/>
<path d="M31.7132 11.655C31.2355 11.0135 30.3279 10.8806 29.6861 11.3582L20 18.5661L10.3138 11.3582C9.67207 10.8806 8.76453 11.0135 8.28673 11.655C7.80898 12.2965 7.94192 13.2037 8.58368 13.6813L19.1349 21.5328C19.3916 21.7239 19.6958 21.8194 20 21.8194C20.3042 21.8194 20.6084 21.7239 20.8651 21.5328L31.4164 13.6812C32.0581 13.2037 32.191 12.2965 31.7132 11.655Z" fill="#F44336"/>
<path d="M31.713 11.655C31.2693 11.0592 30.455 10.9024 29.827 11.2657C29.9929 11.3614 30.1426 11.4916 30.2643 11.655C30.7421 12.2965 30.6092 13.2036 29.9674 13.6812L19.4162 21.5328C19.3708 21.5666 19.3235 21.5963 19.2754 21.6241C19.4993 21.7535 19.7493 21.8194 19.9997 21.8194C20.3039 21.8194 20.6081 21.7239 20.8648 21.5328L31.4161 13.6812C32.0578 13.2036 32.1908 12.2965 31.713 11.655Z" fill="#E53935"/>
</svg>
