<svg width="47" height="46" viewBox="0 0 47 46" fill="none" xmlns="http://www.w3.org/2000/svg">
<path d="M36.9167 19.1666H38.8333C39.8919 19.1666 40.75 20.0247 40.75 21.0833V40.2499C40.75 41.3085 39.8919 42.1666 38.8333 42.1666H8.16667C7.10813 42.1666 6.25 41.3085 6.25 40.2499V21.0833C6.25 20.0247 7.10813 19.1666 8.16667 19.1666H10.0833V17.2499C10.0833 9.8401 16.0902 3.83325 23.5 3.83325C30.9098 3.83325 36.9167 9.8401 36.9167 17.2499V19.1666ZM33.0833 19.1666V17.2499C33.0833 11.9572 28.7927 7.66659 23.5 7.66659C18.2073 7.66659 13.9167 11.9572 13.9167 17.2499V19.1666H33.0833ZM21.5833 26.8333V34.4999H25.4167V26.8333H21.5833Z" fill="#091332"/>
</svg>
