<svg width="47" height="34" viewBox="0 0 47 34" fill="none" xmlns="http://www.w3.org/2000/svg">
<path d="M23.3221 12.2727C25.4308 12.2727 27.1403 10.5633 27.1403 8.45453C27.1403 6.34581 25.4308 4.63635 23.3221 4.63635C21.2134 4.63635 19.5039 6.34581 19.5039 8.45453C19.5039 10.5633 21.2134 12.2727 23.3221 12.2727Z" fill="#DC2F3D"/>
<path d="M10.41 14.0907C12.5187 14.0907 14.2282 12.3813 14.2282 10.2725C14.2282 8.1638 12.5187 6.45435 10.41 6.45435C8.30126 6.45435 6.5918 8.1638 6.5918 10.2725C6.5918 12.3813 8.30126 14.0907 10.41 14.0907Z" fill="#DC2F3D"/>
<path d="M36.2303 14.0907C38.339 14.0907 40.0485 12.3813 40.0485 10.2725C40.0485 8.1638 38.339 6.45435 36.2303 6.45435C34.1216 6.45435 32.4121 8.1638 32.4121 10.2725C32.4121 12.3813 34.1216 14.0907 36.2303 14.0907Z" fill="#DC2F3D"/>
<path d="M45.5025 12.6361H44.0479C43.7586 12.6361 43.4811 12.751 43.2766 12.9556C43.072 13.1602 42.957 13.4377 42.957 13.727V28.8179C42.957 28.9626 43.0145 29.1013 43.1168 29.2036C43.2191 29.3059 43.3578 29.3634 43.5025 29.3634H46.0479C46.1926 29.3634 46.3313 29.3059 46.4336 29.2036C46.5359 29.1013 46.5934 28.9626 46.5934 28.8179V13.727C46.5934 13.4377 46.4785 13.1602 46.2739 12.9556C46.0693 12.751 45.7918 12.6361 45.5025 12.6361Z" fill="#DC2F3D"/>
<path d="M1.13778 29.3634H3.13778C3.28245 29.3634 3.42119 29.3059 3.52348 29.2036C3.62577 29.1013 3.68324 28.9626 3.68324 28.8179V13.727C3.68324 13.4377 3.5683 13.1602 3.36372 12.9556C3.15913 12.751 2.88166 12.6361 2.59233 12.6361H1.13778C0.848457 12.6361 0.57098 12.751 0.366395 12.9556C0.16181 13.1602 0.046875 13.4377 0.046875 13.727L0.046875 28.2725C0.046875 28.5618 0.16181 28.8393 0.366395 29.0439C0.57098 29.2484 0.848457 29.3634 1.13778 29.3634Z" fill="#DC2F3D"/>
<path d="M16.0469 20.3567V20.6323C16.0467 20.7719 16.1 20.9063 16.1958 21.0077C16.2917 21.1092 16.4228 21.1701 16.5621 21.1778L18.9258 21.3094C19.6216 21.3482 20.2761 21.6518 20.7551 22.1579C21.2341 22.6641 21.5011 23.3344 21.5014 24.0312C21.4942 24.1075 21.5028 24.1844 21.5269 24.2571C21.5509 24.3297 21.5898 24.3966 21.6411 24.4535C21.6924 24.5103 21.755 24.5558 21.8249 24.5872C21.8947 24.6186 21.9703 24.635 22.0469 24.6356H24.5923C24.6689 24.635 24.7445 24.6186 24.8144 24.5872C24.8842 24.5558 24.9468 24.5103 24.9981 24.4535C25.0494 24.3966 25.0883 24.3297 25.1123 24.2571C25.1364 24.1844 25.1451 24.1075 25.1378 24.0312C25.1378 23.334 25.4049 22.6633 25.8841 22.1569C26.3634 21.6505 27.0184 21.3468 27.7145 21.3083L30.0781 21.1767C30.2175 21.169 30.3486 21.1081 30.4445 21.0067C30.5403 20.9052 30.5936 20.7708 30.5934 20.6312V20.3556C30.5934 18.4268 29.8272 16.5769 28.4633 15.213C27.0994 13.8491 25.2495 13.0829 23.3207 13.0829C21.3918 13.0829 19.542 13.8491 18.1781 15.213C16.8142 16.5769 16.048 18.4268 16.048 20.3556L16.0469 20.3567Z" fill="#DC2F3D"/>
<path d="M41.8687 16.6366C41.8688 16.5558 41.8509 16.4761 41.8163 16.4031C41.7817 16.3301 41.7313 16.2658 41.6687 16.2148C40.5454 15.2983 39.1365 14.8042 37.6868 14.8184C33.297 14.8184 32.8036 20.0206 32.757 21.6148C32.7548 21.7527 32.7003 21.8846 32.6047 21.9839C32.5091 22.0833 32.3794 22.1428 32.2418 22.1504L27.7781 22.3984C27.3628 22.4279 26.9736 22.6121 26.6874 22.9146C26.4012 23.2171 26.2388 23.6159 26.2323 24.0322C26.2261 24.1082 26.2356 24.1847 26.26 24.2569C26.2845 24.3291 26.3235 24.3956 26.3746 24.4522C26.4256 24.5088 26.4878 24.5543 26.5571 24.586C26.6264 24.6178 26.7015 24.635 26.7778 24.6366H34.2323C34.8108 24.6372 35.3654 24.8672 35.7744 25.2763C36.1835 25.6853 36.4135 26.2399 36.4141 26.8184V28.8184C36.4141 28.9631 36.4716 29.1018 36.5739 29.2041C36.6762 29.3064 36.8149 29.3639 36.9596 29.3639H41.3232C41.4679 29.3639 41.6066 29.3064 41.7089 29.2041C41.8112 29.1018 41.8687 28.9631 41.8687 28.8184V16.6366Z" fill="#DC2F3D"/>
<path d="M4.77344 16.6366V28.8184C4.77344 28.9631 4.8309 29.1018 4.9332 29.2041C5.03549 29.3064 5.17423 29.3639 5.31889 29.3639H9.68253C9.82719 29.3639 9.96593 29.3064 10.0682 29.2041C10.1705 29.1018 10.228 28.9631 10.228 28.8184V26.8184C10.2286 26.2399 10.4586 25.6853 10.8677 25.2763C11.2767 24.8672 11.8313 24.6372 12.4098 24.6366H19.8643C19.9406 24.6349 20.0157 24.6177 20.085 24.586C20.1543 24.5543 20.2165 24.5088 20.2675 24.4522C20.3186 24.3955 20.3576 24.3291 20.3821 24.2569C20.4065 24.1847 20.416 24.1082 20.4098 24.0322C20.4032 23.6159 20.2409 23.2172 19.9548 22.9148C19.6687 22.6123 19.2796 22.4281 18.8643 22.3984L14.4003 22.1504C14.2627 22.1428 14.133 22.0833 14.0374 21.9839C13.9418 21.8845 13.8873 21.7526 13.8851 21.6148C13.8385 20.0206 13.3454 14.8184 8.95526 14.8184C7.50539 14.8045 6.09644 15.2988 4.97307 16.2155C4.91076 16.2666 4.86054 16.3308 4.82602 16.4036C4.7915 16.4765 4.77354 16.556 4.77344 16.6366Z" fill="#DC2F3D"/>
<path d="M35.3203 28.8186V26.8186C35.3203 26.5292 35.2054 26.2518 35.0008 26.0472C34.7962 25.8426 34.5187 25.7277 34.2294 25.7277H12.4112C12.1219 25.7277 11.8444 25.8426 11.6398 26.0472C11.4352 26.2518 11.3203 26.5292 11.3203 26.8186V28.8186C11.3203 28.9632 11.3778 29.102 11.4801 29.2043C11.5824 29.3066 11.7211 29.364 11.8658 29.364H34.7749C34.9195 29.364 35.0583 29.3066 35.1605 29.2043C35.2628 29.102 35.3203 28.9632 35.3203 28.8186Z" fill="#DC2F3D"/>
</svg>
