<svg width="16" height="16" viewBox="0 0 16 16" fill="none" xmlns="http://www.w3.org/2000/svg">
<g clip-path="url(#clip0_1_71133)">
<path d="M15.3033 0H-0.30327C-0.753047 0.000741359 -1.18419 0.180246 -1.50223 0.499181C-1.82027 0.818116 -1.99927 1.25047 -2 1.70151V3.6276H17V1.70151C16.9993 1.25047 16.8203 0.818116 16.5022 0.499181C16.1842 0.180246 15.753 0.000741359 15.3033 0Z" fill="#091332"/>
<path d="M1.62428 10.4335L1.77359 9.42278C1.78234 9.36854 1.77728 9.31297 1.75889 9.26121C1.7405 9.20946 1.70937 9.1632 1.66839 9.12673L0.925223 8.42912L1.9297 8.25897C1.98366 8.24956 2.03461 8.22736 2.07828 8.19421C2.12196 8.16106 2.15711 8.11793 2.18081 8.0684L2.61176 7.13939L3.08346 8.04798C3.10845 8.09692 3.14503 8.13896 3.18999 8.1704C3.23496 8.20185 3.28694 8.22175 3.34136 8.22836L4.35261 8.35086L3.63999 9.0791C3.6015 9.11914 3.57311 9.16782 3.55717 9.22109C3.54123 9.27436 3.53821 9.33068 3.54836 9.38536L3.74518 10.3858L2.83236 9.93324C2.78324 9.90831 2.72875 9.8959 2.67371 9.89708C2.61867 9.89827 2.56477 9.91302 2.51677 9.94005L1.62428 10.4335Z" fill="#091332"/>
<path fill-rule="evenodd" clip-rule="evenodd" d="M-2 4.30781V13.2985C-1.99927 13.7495 -1.82027 14.1819 -1.50223 14.5008C-1.18419 14.8198 -0.753047 14.9993 -0.30327 15H15.3033C15.753 14.9993 16.1842 14.8198 16.5022 14.5008C16.8203 14.1819 16.9993 13.7495 17 13.2985V4.30781H-2ZM7.52205 5.32871H14.3836C14.4726 5.33033 14.5573 5.3669 14.6196 5.43054C14.6819 5.49419 14.7169 5.57982 14.7169 5.66902C14.7169 5.75821 14.6819 5.84384 14.6196 5.90748C14.5573 5.97112 14.4725 6.00769 14.3836 6.0093H7.52205C7.43294 6.00795 7.34794 5.9715 7.28541 5.90783C7.22287 5.84416 7.18782 5.75837 7.18782 5.669C7.18782 5.57964 7.22287 5.49385 7.28541 5.43018C7.34794 5.36651 7.43294 5.33006 7.52205 5.32871ZM7.52205 7.36367H14.3836C14.4726 7.36527 14.5574 7.40183 14.6197 7.46547C14.682 7.52912 14.717 7.61477 14.717 7.70398C14.7169 7.79319 14.682 7.87884 14.6197 7.94248C14.5573 8.00612 14.4726 8.04268 14.3836 8.04427H7.52205C7.433 8.04283 7.34809 8.00634 7.28562 7.94268C7.22315 7.87902 7.18814 7.79329 7.18814 7.70397C7.18814 7.61466 7.22315 7.52893 7.28562 7.46527C7.34809 7.40161 7.433 7.36511 7.52205 7.36367ZM7.52205 9.39526H14.3836C14.4725 9.39691 14.5573 9.43349 14.6196 9.49713C14.6819 9.56077 14.7168 9.64639 14.7168 9.73557C14.7168 9.82475 14.6819 9.91037 14.6196 9.97401C14.5573 10.0376 14.4725 10.0742 14.3836 10.0759H7.52205C7.43298 10.0744 7.34804 10.038 7.28555 9.97431C7.22306 9.91064 7.18803 9.82489 7.18803 9.73556C7.18803 9.64623 7.22306 9.56048 7.28555 9.49682C7.34804 9.43315 7.43298 9.39668 7.52205 9.39526ZM7.52205 11.4268H14.3836C14.4726 11.4284 14.5573 11.465 14.6196 11.5287C14.6819 11.5923 14.7169 11.6779 14.7169 11.7671C14.7169 11.8563 14.6819 11.942 14.6196 12.0056C14.5573 12.0692 14.4725 12.1058 14.3836 12.1074H7.52205C7.43309 12.1058 7.3483 12.0693 7.28594 12.0057C7.22359 11.942 7.18864 11.8564 7.18864 11.7671C7.18864 11.6779 7.22359 11.5922 7.28594 11.5286C7.3483 11.465 7.43309 11.4284 7.52205 11.4268ZM-0.136982 8.10894C-0.117764 8.04814 -0.0822976 7.99379 -0.0344359 7.9518C0.0134258 7.9098 0.0718515 7.88176 0.134491 7.87073L1.64119 7.61891L2.28596 6.2271C2.31233 6.16974 2.35439 6.12107 2.40725 6.08673C2.46011 6.0524 2.52161 6.03381 2.58459 6.03313C2.64806 6.02924 2.71127 6.04429 2.76623 6.07639C2.82118 6.10849 2.86543 6.15619 2.89338 6.21348L3.60263 7.57125L5.1161 7.75843C5.17854 7.76663 5.23752 7.79199 5.28649 7.83169C5.33547 7.8714 5.37254 7.92392 5.39361 7.98343C5.41468 8.04295 5.41893 8.10715 5.40589 8.16894C5.39284 8.23073 5.36302 8.28769 5.3197 8.33354L4.25076 9.42929L4.54259 10.9334C4.5536 10.996 4.54741 11.0604 4.52469 11.1198C4.50197 11.1791 4.46358 11.2312 4.41363 11.2703C4.36334 11.3088 4.30331 11.3324 4.24033 11.3384C4.17736 11.3444 4.11396 11.3326 4.05733 11.3043L2.68977 10.6203L1.35274 11.3656C1.29728 11.3956 1.23461 11.4095 1.17171 11.4059C1.1088 11.4023 1.04813 11.3813 0.996436 11.3452C0.943825 11.3103 0.902386 11.2609 0.8771 11.2029C0.851813 11.145 0.843756 11.0809 0.853895 11.0185L1.07787 9.50076L-0.041965 8.45605C-0.0880275 8.4125 -0.121256 8.35708 -0.138015 8.29586C-0.154773 8.23464 -0.154416 8.16997 -0.136982 8.10894Z" fill="#091332"/>
</g>
<defs>
<clipPath id="clip0_1_71133">
<rect width="16" height="16" fill="white"/>
</clipPath>
</defs>
</svg>
