<svg width="16" height="16" viewBox="0 0 16 16" fill="none" xmlns="http://www.w3.org/2000/svg">
<g clip-path="url(#clip0_1_71121)">
<path d="M7.99969 0.841797C4.0465 0.841797 0.841797 4.0465 0.841797 7.99969C0.841797 11.9529 4.0465 15.1576 7.99969 15.1576C11.9529 15.1576 15.1576 11.9529 15.1576 7.99969C15.1534 4.04826 11.9511 0.846021 7.99969 0.841797ZM11.0142 8.22776C10.9646 8.32716 10.8841 8.40775 10.7846 8.4573V8.45984L6.6944 10.505C6.4418 10.6312 6.13473 10.5288 6.00849 10.2762C5.9726 10.2043 5.95412 10.1251 5.95457 10.0448V5.9546C5.95445 5.67221 6.18323 5.44322 6.46562 5.44307C6.54503 5.44304 6.62337 5.46149 6.6944 5.49699L10.7846 7.54212C11.0373 7.66806 11.1401 7.97504 11.0142 8.22776Z" fill="#091332"/>
</g>
<defs>
<clipPath id="clip0_1_71121">
<rect width="16" height="16" fill="white"/>
</clipPath>
</defs>
</svg>
