<svg width="22" height="22" viewBox="0 0 22 22" fill="none" xmlns="http://www.w3.org/2000/svg">
<g clip-path="url(#clip0_503_18058)">
<path d="M10.5583 13.8945C10.6303 15.0438 9.80685 16.6448 9.41304 17.6994C9.08165 18.4638 9.05582 19.3466 9.0764 20.1692H2.54459C2.51217 19.5966 2.36784 18.294 1.72802 17.6566C0.341988 16.2773 0.320966 14.1697 0.320421 14.1303L0.00118036 9.36109C-0.00336252 9.29809 0.00523934 9.23484 0.0264401 9.17534C0.0476409 9.11585 0.0809776 9.0614 0.124335 9.01548C0.518836 8.67001 1.52743 8.81314 1.70918 10.4297L2.03953 13.0719C2.04863 13.116 2.06674 13.1578 2.09272 13.1946C2.11871 13.2314 2.15201 13.2624 2.19055 13.2857C2.21117 13.296 4.26018 14.3517 4.26018 16.3716C4.26018 16.7323 4.81512 16.7368 4.81591 16.3716C4.81591 14.3047 3.07886 13.1533 2.57325 12.8619C2.55525 12.74 2.2428 10.1598 2.22257 10.1183V4.57199C2.22257 4.14437 2.50136 3.77749 2.88376 3.6999C3.38947 3.58452 3.90038 4.00208 3.88972 4.51646V9.33278C3.8922 9.69471 4.44308 9.69744 4.44546 9.33278V2.66438C4.44546 2.44331 4.53328 2.23128 4.6896 2.07496C4.84593 1.91863 5.05795 1.83081 5.27903 1.83081C5.50011 1.83081 5.71213 1.91863 5.86846 2.07496C6.02478 2.23128 6.1126 2.44331 6.1126 2.66438V9.33278C6.11384 9.69441 6.6667 9.69744 6.66829 9.33278V4.51646C6.68688 3.42255 8.31625 3.42007 8.33544 4.51646C8.33772 6.0142 8.3338 9.29376 8.33544 10.8146C8.33544 11.1748 8.89033 11.18 8.89117 10.8146V7.11233C8.90927 6.01727 10.5398 6.01713 10.5583 7.11233V13.8945Z" fill="#DC2F3D"/>
<path d="M21.679 14.1486C21.679 14.1698 21.658 16.2774 20.2719 17.6569C19.6324 18.2941 19.4878 19.5967 19.4554 20.1693H12.9236V19.4478C12.9891 18.3441 12.1764 16.727 11.7913 15.7109C11.5599 15.1333 11.4412 14.5168 11.4417 13.8946V7.11244C11.4624 6.01699 13.0886 6.01674 13.1088 7.11244V10.8146C13.1112 11.1765 13.6622 11.1793 13.6645 10.8146C13.6676 9.28709 13.6623 6.02031 13.6645 4.51653C13.6838 3.42311 15.3119 3.41944 15.3317 4.51653V9.3329C15.3317 9.40658 15.361 9.47725 15.4131 9.52936C15.4652 9.58147 15.5358 9.61074 15.6095 9.61074C15.6832 9.61074 15.7539 9.58147 15.806 9.52936C15.8581 9.47725 15.8874 9.40658 15.8874 9.3329C15.8874 8.03025 15.8874 3.90026 15.8874 2.6645C15.9052 1.57272 17.5352 1.56632 17.5545 2.6645V9.3329C17.5545 9.69512 18.1095 9.69676 18.1102 9.3329V4.51658C18.1101 4.40711 18.1316 4.29869 18.1735 4.19758C18.2155 4.09648 18.2771 4.00471 18.3548 3.92758C18.8711 3.3891 19.8059 3.80507 19.7774 4.57211V10.1183C19.7576 10.1566 19.4441 12.7449 19.4267 12.8621C18.921 13.1535 17.1841 14.3048 17.1841 16.3718C17.1841 16.4455 17.2133 16.5162 17.2654 16.5683C17.3176 16.6204 17.3882 16.6497 17.4619 16.6497C17.5356 16.6497 17.6063 16.6204 17.6584 16.5683C17.7105 16.5162 17.7398 16.4455 17.7398 16.3718C17.7398 14.3519 19.7888 13.2963 19.8094 13.2859C19.848 13.2627 19.8814 13.2317 19.9074 13.1949C19.9334 13.1581 19.9515 13.1163 19.9604 13.0721L20.2908 10.4295C20.4756 8.80919 21.4782 8.6725 21.8756 9.01559C21.919 9.06153 21.9523 9.11596 21.9735 9.17545C21.9947 9.23493 22.0033 9.29817 21.9988 9.36116L21.679 14.1486Z" fill="#DC2F3D"/>
</g>
<defs>
<clipPath id="clip0_503_18058">
<rect width="22" height="22" fill="white"/>
</clipPath>
</defs>
</svg>
