<svg width="43" height="32" viewBox="0 0 43 32" fill="none" xmlns="http://www.w3.org/2000/svg">
<path d="M10.9158 0.5C16.7719 0.5 20.9992 5.33459 20.999 12.493C20.9615 22.8937 13.1428 30.2474 1.86305 31.6596C0.816564 31.7906 0.413052 30.3409 1.37673 29.9124C5.70485 27.9879 7.89077 25.5458 8.17311 23.1285C8.38406 21.3226 7.40232 19.7406 6.16958 19.4444C2.97374 18.6764 0.832507 14.6966 0.832507 10.5833C0.832507 5.01446 5.34697 0.5 10.9158 0.5Z" fill="white"/>
<path d="M32.9158 0.5C38.7719 0.5 42.9992 5.33459 42.999 12.493C42.9615 22.8937 35.1428 30.2474 23.863 31.6596C22.8166 31.7906 22.4131 30.3409 23.3767 29.9124C27.7048 27.9879 29.8908 25.5458 30.1731 23.1285C30.3841 21.3226 29.4023 19.7406 28.1696 19.4444C24.9737 18.6764 22.8325 14.6966 22.8325 10.5833C22.8325 5.01446 27.347 0.5 32.9158 0.5Z" fill="white"/>
</svg>
