<svg width="43" height="32" viewBox="0 0 43 32" fill="none" xmlns="http://www.w3.org/2000/svg">
<path d="M32.0842 31.5C26.2281 31.5 22.0008 26.6654 22.001 19.507C22.0385 9.10626 29.8572 1.75263 41.137 0.340437C42.1834 0.209419 42.5869 1.65909 41.6233 2.08759C37.2952 4.01212 35.1092 6.45425 34.8269 8.87147C34.6159 10.6774 35.5977 12.2594 36.8304 12.5556C40.0263 13.3236 42.1675 17.3034 42.1675 21.4167C42.1675 26.9855 37.653 31.5 32.0842 31.5Z" fill="white"/>
<path d="M10.0842 31.5C4.22811 31.5 0.000822067 26.6654 0.000963211 19.507C0.0384674 9.10626 7.85724 1.75263 19.137 0.340437C20.1834 0.209419 20.5869 1.65909 19.6233 2.08759C15.2952 4.01212 13.1092 6.45425 12.8269 8.87147C12.6159 10.6774 13.5977 12.2594 14.8304 12.5556C18.0263 13.3236 20.1675 17.3034 20.1675 21.4167C20.1675 26.9855 15.653 31.5 10.0842 31.5Z" fill="white"/>
</svg>
