<svg width="34" height="38" viewBox="0 0 34 38" fill="none" xmlns="http://www.w3.org/2000/svg">
<path fill-rule="evenodd" clip-rule="evenodd" d="M24.4497 18.9118C24.4397 18.7218 24.4297 18.5418 24.4197 18.3718C24.3597 17.3918 24.1497 16.4318 23.7897 15.5218C20.8997 8.24182 19.8597 3.87182 19.5197 1.85182C19.4697 1.53182 19.4397 1.40182 19.3897 1.30182C19.2997 1.14182 19.1397 1.01182 18.9797 0.941822C18.9297 0.921822 18.8597 0.891822 18.7897 0.871822C18.5297 0.781822 18.2597 0.711822 18.0797 0.671822C17.9197 0.631822 17.7497 0.671822 17.6197 0.771822C17.4997 0.871822 17.4297 1.03182 17.4297 1.19182V2.13182V9.82182C17.8097 9.88182 18.2097 10.0218 18.5597 10.2218C19.1197 10.5418 19.4697 10.9818 19.5497 11.4418C19.9497 14.0318 20.8397 18.3018 21.4697 19.2218C21.5597 19.3618 21.5297 19.5518 21.3897 19.6418C21.3397 19.6818 21.2797 19.6918 21.2197 19.6918C21.1197 19.6918 21.0297 19.6418 20.9697 19.5618C20.2497 18.5018 19.3497 14.0718 18.9597 11.5318C18.8897 11.0818 18.2997 10.6818 17.6797 10.4918C17.5597 10.4518 17.4397 10.5418 17.4397 10.6718V23.9318V28.4818C17.4397 28.5318 17.4797 28.9318 17.7297 29.4118C18.0797 30.1018 18.6697 30.6318 19.4797 31.0018C19.8497 31.1718 20.2797 31.3518 20.7497 31.5518C22.0797 32.1218 23.5597 32.7518 24.5097 33.3618L26.7197 26.9918C25.8697 25.9318 25.2797 24.6018 24.9197 22.9318C24.5797 21.4518 24.4997 19.9818 24.4497 18.9118Z" fill="#DC2F3D"/>
<path fill-rule="evenodd" clip-rule="evenodd" d="M30.4602 37.5118L34.0102 27.3018L28.2102 25.1318L24.6602 35.3418L30.4602 37.5118Z" fill="#DC2F3D"/>
<path fill-rule="evenodd" clip-rule="evenodd" d="M9.60812 18.9132C9.61812 18.7232 9.62812 18.5432 9.63812 18.3732C9.69812 17.3932 9.90812 16.4332 10.2681 15.5232C13.1581 8.23316 14.1981 3.86316 14.5281 1.84316C14.5781 1.52316 14.6081 1.39316 14.6581 1.29316C14.7481 1.13316 14.9081 1.00316 15.0681 0.933155C15.1181 0.913155 15.1881 0.883155 15.2581 0.863155C15.5181 0.773155 15.7881 0.703155 15.9681 0.663155C16.1281 0.623155 16.2981 0.663155 16.4281 0.763155C16.5481 0.863155 16.6181 1.02316 16.6181 1.18316V2.12316V9.81316C16.2381 9.87316 15.8381 10.0132 15.4881 10.2132C14.9281 10.5332 14.5781 10.9732 14.4981 11.4332C14.0981 14.0232 13.2081 18.2932 12.5781 19.2132C12.4881 19.3532 12.5181 19.5432 12.6581 19.6332C12.7081 19.6732 12.7681 19.6832 12.8281 19.6832C12.9281 19.6832 13.0181 19.6332 13.0781 19.5532C13.7981 18.4932 14.6981 14.0632 15.0881 11.5232C15.1581 11.0732 15.7481 10.6732 16.3681 10.4832C16.4881 10.4432 16.6081 10.5332 16.6081 10.6632V23.9232V28.4732C16.6081 28.5232 16.5681 28.9232 16.3181 29.4032C15.9681 30.0932 15.3781 30.6232 14.5681 30.9932C14.1981 31.1632 13.7681 31.3432 13.2981 31.5432C11.9681 32.1132 10.4881 32.7432 9.53812 33.3532L7.32812 26.9832C8.17812 25.9232 8.76812 24.5932 9.12812 22.9232C9.46812 21.4532 9.54812 19.9832 9.60812 18.9132Z" fill="#DC2F3D"/>
<path fill-rule="evenodd" clip-rule="evenodd" d="M3.58883 37.5132L0.0488281 27.3032L5.83883 25.1332L9.38883 35.3432L3.58883 37.5132Z" fill="#DC2F3D"/>
</svg>
