<svg width="198" height="76" viewBox="0 0 198 76" fill="none" xmlns="http://www.w3.org/2000/svg">
<rect x="3" y="5" width="192" height="66" rx="14" fill="white" fill-opacity="0.05"/>
<path d="M73.1507 25.9395C73.1507 26.991 72.8322 27.833 72.2047 28.4611C71.4833 29.2055 70.5438 29.5802 69.3924 29.5802C68.2919 29.5802 67.3524 29.1993 66.5816 28.4485C65.8092 27.6867 65.4238 26.7517 65.4238 25.6326C65.4238 24.5135 65.8092 23.5786 66.5816 22.823C67.3524 22.066 68.2919 21.6851 69.3924 21.6851C69.9402 21.6851 70.4625 21.7968 70.961 22.0046C71.4578 22.2139 71.8623 22.4972 72.1554 22.8467L71.4897 23.5109C70.9785 22.9143 70.2826 22.62 69.3924 22.62C68.5897 22.62 67.8938 22.897 67.303 23.4558C66.7185 24.0161 66.4255 24.7417 66.4255 25.6326C66.4255 26.5235 66.7185 27.2554 67.303 27.8157C67.8938 28.3682 68.5897 28.6515 69.3924 28.6515C70.2444 28.6515 70.961 28.3682 71.5263 27.8094C71.899 27.4395 72.1108 26.9296 72.1665 26.2779H69.3924V25.3682H73.0934C73.1379 25.5649 73.1507 25.7554 73.1507 25.9395V25.9395Z" fill="white" stroke="white" stroke-width="0.203355" stroke-miterlimit="10"/>
<path d="M79.0212 22.7852H75.5447V25.1777H78.6788V26.0874H75.5447V28.4799H79.0212V29.407H74.5605V21.8582H79.0212V22.7852Z" fill="white" stroke="white" stroke-width="0.203355" stroke-miterlimit="10"/>
<path d="M83.1654 29.407H82.1812V22.7852H80.0488V21.8582H85.2993V22.7852H83.1654V29.407V29.407Z" fill="white" stroke="white" stroke-width="0.203355" stroke-miterlimit="10"/>
<path d="M89.0996 29.407V21.8582H90.0822V29.407H89.0996Z" fill="white" stroke="white" stroke-width="0.203355" stroke-miterlimit="10"/>
<path d="M94.4369 29.407H93.4606V22.7852H91.3203V21.8582H96.5772V22.7852H94.4369V29.407Z" fill="white" stroke="white" stroke-width="0.203355" stroke-miterlimit="10"/>
<path d="M106.519 28.4359C105.765 29.1993 104.832 29.5802 103.719 29.5802C102.599 29.5802 101.666 29.1993 100.913 28.4359C100.161 27.6741 99.7871 26.7391 99.7871 25.6326C99.7871 24.5261 100.161 23.5912 100.913 22.8293C101.666 22.066 102.599 21.6851 103.719 21.6851C104.826 21.6851 105.759 22.066 106.512 22.8356C107.27 23.6037 107.645 24.5324 107.645 25.6326C107.645 26.7391 107.27 27.6741 106.519 28.4359ZM101.641 27.8031C102.208 28.3682 102.897 28.6515 103.719 28.6515C104.534 28.6515 105.23 28.3682 105.791 27.8031C106.356 27.2381 106.643 26.5125 106.643 25.6326C106.643 24.7528 106.356 24.0271 105.791 23.4621C105.23 22.897 104.534 22.6137 103.719 22.6137C102.897 22.6137 102.208 22.897 101.641 23.4621C101.075 24.0271 100.789 24.7528 100.789 25.6326C100.789 26.5125 101.075 27.2381 101.641 27.8031V27.8031Z" fill="white" stroke="white" stroke-width="0.203355" stroke-miterlimit="10"/>
<path d="M109.025 29.407V21.8582H110.22L113.934 27.7291H113.977L113.934 26.2779V21.8582H114.916V29.407H113.891L110.002 23.2464H109.959L110.002 24.7039V29.407H109.025V29.407Z" fill="white" stroke="white" stroke-width="0.203355" stroke-miterlimit="10"/>
<path d="M99.5447 40.4312C96.5523 40.4312 94.1078 42.682 94.1078 45.7875C94.1078 48.8678 96.5523 51.1422 99.5447 51.1422C102.543 51.1422 104.988 48.8678 104.988 45.7875C104.988 42.682 102.543 40.4312 99.5447 40.4312ZM99.5447 49.033C97.9028 49.033 96.4902 47.6936 96.4902 45.7875C96.4902 43.8562 97.9028 42.5404 99.5447 42.5404C101.187 42.5404 102.605 43.8562 102.605 45.7875C102.605 47.6936 101.187 49.033 99.5447 49.033ZM87.682 40.4312C84.6833 40.4312 82.2452 42.682 82.2452 45.7875C82.2452 48.8678 84.6833 51.1422 87.682 51.1422C90.6791 51.1422 93.1189 48.8678 93.1189 45.7875C93.1189 42.682 90.6791 40.4312 87.682 40.4312ZM87.682 49.033C86.0386 49.033 84.6212 47.6936 84.6212 45.7875C84.6212 43.8562 86.0386 42.5404 87.682 42.5404C89.3239 42.5404 90.7365 43.8562 90.7365 45.7875C90.7365 47.6936 89.3239 49.033 87.682 49.033ZM73.566 42.0729V44.3489H79.065C78.9041 45.6206 78.4741 46.5556 77.8148 47.2072C77.0122 47.9942 75.7621 48.8678 73.566 48.8678C70.1819 48.8678 67.532 46.1684 67.532 42.8237C67.532 39.479 70.1819 36.7796 73.566 36.7796C75.3958 36.7796 76.7272 37.4863 77.7097 38.4024L79.3325 36.7985C77.9582 35.5015 76.13 34.5052 73.566 34.5052C68.9254 34.5052 65.0254 38.2371 65.0254 42.8237C65.0254 47.4103 68.9254 51.1422 73.566 51.1422C76.0742 51.1422 77.9582 50.33 79.4392 48.8064C80.9569 47.3064 81.4298 45.1972 81.4298 43.4942C81.4298 42.9653 81.3853 42.479 81.3056 42.0729H73.566ZM131.288 43.8373C130.841 42.6395 129.46 40.4312 126.648 40.4312C123.861 40.4312 121.54 42.6017 121.54 45.7875C121.54 48.7875 123.837 51.1422 126.915 51.1422C129.404 51.1422 130.841 49.6422 131.432 48.7686L129.584 47.5519C128.968 48.4428 128.129 49.033 126.915 49.033C125.71 49.033 124.845 48.4869 124.291 47.4103L131.538 44.4464L131.288 43.8373ZM123.899 45.6206C123.837 43.5556 125.522 42.4979 126.729 42.4979C127.675 42.4979 128.477 42.9653 128.745 43.6343L123.899 45.6206ZM118.008 50.8164H120.391V35.0765H118.008V50.8164ZM114.107 41.6243H114.027C113.492 40.9978 112.471 40.4312 111.178 40.4312C108.464 40.4312 105.983 42.7859 105.983 45.8048C105.983 48.8064 108.464 51.1422 111.178 51.1422C112.471 51.1422 113.492 50.5708 114.027 49.9255H114.107V50.6936C114.107 52.7413 113 53.8415 111.215 53.8415C109.759 53.8415 108.856 52.8027 108.483 51.9292L106.412 52.7838C107.009 54.2036 108.59 55.9507 111.215 55.9507C114.008 55.9507 116.365 54.3263 116.365 50.3741V40.757H114.107V41.6243ZM111.382 49.033C109.74 49.033 108.366 47.6747 108.366 45.8048C108.366 43.9176 109.74 42.5404 111.382 42.5404C113 42.5404 114.275 43.9176 114.275 45.8048C114.275 47.6747 113 49.033 111.382 49.033ZM142.442 35.0765H136.744V50.8164H139.12V44.8525H142.442C145.081 44.8525 147.669 42.9653 147.669 39.9637C147.669 36.9637 145.075 35.0765 142.442 35.0765ZM142.504 42.6631H139.12V37.2659H142.504C144.278 37.2659 145.291 38.7219 145.291 39.9637C145.291 41.182 144.278 42.6631 142.504 42.6631ZM157.192 40.4013C155.475 40.4013 153.69 41.1505 152.956 42.8111L155.064 43.6846C155.518 42.8111 156.353 42.5278 157.235 42.5278C158.468 42.5278 159.718 43.2597 159.737 44.5519V44.7172C159.307 44.4716 158.386 44.108 157.254 44.108C154.983 44.108 152.669 45.3436 152.669 47.6495C152.669 49.7586 154.529 51.117 156.62 51.117C158.219 51.117 159.101 50.404 159.656 49.5745H159.737V50.7912H162.032V44.7534C162.032 41.9627 159.923 40.4013 157.192 40.4013ZM156.905 49.0267C156.128 49.0267 155.045 48.6458 155.045 47.6936C155.045 46.4753 156.396 46.0078 157.565 46.0078C158.611 46.0078 159.101 46.2361 159.737 46.5367C159.55 47.9942 158.281 49.0267 156.905 49.0267ZM170.392 40.746L167.661 47.5692H167.58L164.756 40.746H162.194L166.437 50.2812L164.016 55.5871H166.499L173.036 40.746H170.392ZM148.975 50.8164H151.357V35.0765H148.975V50.8164Z" fill="white"/>
<path d="M26.0342 22.5332C25.6599 22.9204 25.4434 23.5233 25.4434 24.304V52.1509C25.4434 52.9316 25.6599 53.5344 26.0342 53.9216L26.1265 54.0066L41.9147 38.4084V38.0401L26.1265 22.4419L26.0342 22.5332Z" fill="url(#paint0_linear_2007_4870)"/>
<path d="M47.1709 43.6106L41.9141 38.4086V38.0403L47.1773 32.8383L47.2952 32.9059L53.5282 36.4112C55.3071 37.406 55.3071 39.0429 53.5282 40.0439L47.2952 43.5429L47.1709 43.6106V43.6106Z" fill="url(#paint1_linear_2007_4870)"/>
<path d="M47.2968 43.5428L41.9157 38.2243L26.0352 53.9216C26.626 54.5355 27.5894 54.6094 28.6851 53.9956L47.2968 43.5428" fill="url(#paint2_linear_2007_4870)"/>
<path d="M47.2968 32.9059L28.6851 22.4531C27.5894 21.8455 26.626 21.9195 26.0352 22.5333L41.9157 38.2244L47.2968 32.9059Z" fill="url(#paint3_linear_2007_4870)"/>
<defs>
<linearGradient id="paint0_linear_2007_4870" x1="40.5129" y1="52.4409" x2="19.3822" y2="31.0614" gradientUnits="userSpaceOnUse">
<stop stop-color="#00A0FF"/>
<stop offset="0.0066" stop-color="#00A1FF"/>
<stop offset="0.2601" stop-color="#00BEFF"/>
<stop offset="0.5122" stop-color="#00D2FF"/>
<stop offset="0.7604" stop-color="#00DFFF"/>
<stop offset="1" stop-color="#00E3FF"/>
</linearGradient>
<linearGradient id="paint1_linear_2007_4870" x1="55.8446" y1="38.2227" x2="25.0175" y2="38.2227" gradientUnits="userSpaceOnUse">
<stop stop-color="#FFE000"/>
<stop offset="0.4087" stop-color="#FFBD00"/>
<stop offset="0.7754" stop-color="#FFA500"/>
<stop offset="1" stop-color="#FF9C00"/>
</linearGradient>
<linearGradient id="paint2_linear_2007_4870" x1="44.3707" y1="35.3331" x2="15.7157" y2="6.34077" gradientUnits="userSpaceOnUse">
<stop stop-color="#FF3A44"/>
<stop offset="1" stop-color="#C31162"/>
</linearGradient>
<linearGradient id="paint3_linear_2007_4870" x1="22.0377" y1="63.1862" x2="34.8334" y2="50.24" gradientUnits="userSpaceOnUse">
<stop stop-color="#32A071"/>
<stop offset="0.0685" stop-color="#2DA771"/>
<stop offset="0.4762" stop-color="#15CF74"/>
<stop offset="0.8009" stop-color="#06E775"/>
<stop offset="1" stop-color="#00F076"/>
</linearGradient>
</defs>
</svg>
