<svg width="500" height="373" viewBox="0 0 500 373" fill="none" xmlns="http://www.w3.org/2000/svg">
<g clip-path="url(#clip0_250_21)">
<path d="M500 327.4H0V327.65H500V327.4Z" fill="#EBEBEB"/>
<path d="M449.9 343.49H416.78V343.74H449.9V343.49Z" fill="#EBEBEB"/>
<path d="M331.22 346.211H322.53V346.461H331.22V346.211Z" fill="#EBEBEB"/>
<path d="M415.78 334.211H396.59V334.461H415.78V334.211Z" fill="#EBEBEB"/>
<path d="M95.65 335.891H52.46V336.141H95.65V335.891Z" fill="#EBEBEB"/>
<path d="M110.89 335.891H104.56V336.141H110.89V335.891Z" fill="#EBEBEB"/>
<path d="M225.15 340.109H131.47V340.359H225.15V340.109Z" fill="#EBEBEB"/>
<path d="M237 282.8H43.91C42.3973 282.797 40.9475 282.195 39.8788 281.124C38.8102 280.054 38.21 278.603 38.21 277.09V5.66C38.2231 4.15603 38.8292 2.71798 39.8964 1.65822C40.9637 0.598458 42.4059 0.00257639 43.91 0H237C238.514 0 239.967 0.601588 241.038 1.67242C242.108 2.74325 242.71 4.19561 242.71 5.71V277.09C242.71 278.604 242.108 280.057 241.038 281.128C239.967 282.198 238.514 282.8 237 282.8ZM43.91 0.200001C42.4636 0.20265 41.0774 0.779065 40.0556 1.80273C39.0338 2.82639 38.46 4.21365 38.46 5.66V277.09C38.46 278.536 39.0338 279.924 40.0556 280.947C41.0774 281.971 42.4636 282.547 43.91 282.55H237C238.447 282.547 239.834 281.971 240.858 280.948C241.881 279.924 242.457 278.537 242.46 277.09V5.66C242.457 4.21273 241.881 2.82549 240.858 1.80212C239.834 0.77874 238.447 0.202644 237 0.200001H43.91Z" fill="#EBEBEB"/>
<path d="M453.31 282.8H260.21C258.696 282.797 257.246 282.195 256.175 281.125C255.105 280.054 254.503 278.604 254.5 277.09V5.66C254.516 4.15511 255.124 2.71708 256.193 1.65759C257.262 0.598109 258.705 0.00254829 260.21 0H453.31C454.812 0.0052045 456.252 0.602249 457.317 1.66173C458.382 2.72121 458.987 4.15775 459 5.66V277.09C459 278.601 458.401 280.05 457.335 281.121C456.268 282.191 454.821 282.795 453.31 282.8ZM260.21 0.200001C258.763 0.202644 257.375 0.77874 256.352 1.80212C255.329 2.82549 254.753 4.21273 254.75 5.66V277.09C254.753 278.537 255.329 279.924 256.352 280.948C257.375 281.971 258.763 282.547 260.21 282.55H453.31C454.757 282.547 456.145 281.971 457.168 280.948C458.191 279.924 458.767 278.537 458.77 277.09V5.66C458.767 4.21273 458.191 2.82549 457.168 1.80212C456.145 0.77874 454.757 0.202644 453.31 0.200001H260.21Z" fill="#EBEBEB"/>
<path d="M289.69 119.061H427.47V28.8306H289.69V119.061Z" fill="#E6E6E6"/>
<path d="M285.48 119.061H425.5V28.8306H285.48V119.061Z" fill="#F0F0F0"/>
<path d="M289.69 136.76H427.47V119.05H289.69V136.76Z" fill="#E6E6E6"/>
<path d="M278.49 136.76H418.51V119.05H278.49V136.76Z" fill="#F0F0F0"/>
<path d="M419.62 113.181V34.7207H291.37V113.181H419.62Z" fill="#FAFAFA"/>
<path d="M390.7 113.171L374.32 34.7207H348.76L365.14 113.171H390.7Z" fill="white"/>
<path d="M416.9 107.319C416.956 107.319 417.012 107.308 417.063 107.286C417.115 107.264 417.162 107.233 417.201 107.192C417.24 107.152 417.271 107.105 417.291 107.053C417.312 107.001 417.321 106.945 417.32 106.889V38.549C417.32 38.4376 417.276 38.3308 417.197 38.252C417.118 38.1733 417.011 38.129 416.9 38.129C416.845 38.1277 416.789 38.1376 416.738 38.1582C416.686 38.1788 416.639 38.2097 416.6 38.249C416.561 38.2883 416.53 38.3351 416.509 38.3867C416.489 38.4383 416.479 38.4935 416.48 38.549V106.889C416.479 106.945 416.489 107.001 416.509 107.053C416.53 107.105 416.56 107.152 416.6 107.192C416.639 107.233 416.685 107.264 416.737 107.286C416.789 107.308 416.844 107.319 416.9 107.319Z" fill="#F0F0F0"/>
<path d="M359.65 113.171L343.27 34.7207H333.3L349.69 113.171H359.65Z" fill="white"/>
<path d="M292.12 113.181V34.7207H291.37V113.181H292.12Z" fill="#E6E6E6"/>
<path opacity="0.6" d="M284.1 43.59H421.88L422.42 37H284.64L284.1 43.59Z" fill="#EBEBEB"/>
<path opacity="0.6" d="M284.1 54.3905H421.88L422.42 47.8105H284.64L284.1 54.3905Z" fill="#EBEBEB"/>
<path opacity="0.6" d="M284.1 65.1894H421.88L422.42 58.6094H284.64L284.1 65.1894Z" fill="#EBEBEB"/>
<path opacity="0.6" d="M284.1 76.0002H421.88L422.42 69.4102H284.64L284.1 76.0002Z" fill="#EBEBEB"/>
<path opacity="0.6" d="M284.1 86.8009H421.88L422.42 80.2109H284.64L284.1 86.8009Z" fill="#EBEBEB"/>
<path opacity="0.6" d="M284.1 97.5998H421.88L422.42 91.0098H284.64L284.1 97.5998Z" fill="#EBEBEB"/>
<path d="M407.69 261.779H378.8V267.479H407.69V261.779Z" fill="#E6E6E6"/>
<path d="M324.31 327.4H329.64V196.33H324.31V327.4Z" fill="#E6E6E6"/>
<path d="M305.83 267.48H378.79V261.78H305.83V267.48Z" fill="#F5F5F5"/>
<path d="M407.69 292.949H378.8V298.649H407.69V292.949Z" fill="#E6E6E6"/>
<path d="M305.83 298.641H378.79V292.941H305.83V298.641Z" fill="#F5F5F5"/>
<path d="M407.69 199.449H378.8V205.149H407.69V199.449Z" fill="#E6E6E6"/>
<path d="M305.83 205.141H378.79V199.441H305.83V205.141Z" fill="#F5F5F5"/>
<path d="M407.69 230.609H378.8V236.309H407.69V230.609Z" fill="#E6E6E6"/>
<path d="M305.83 236.311H378.79V230.611H305.83V236.311Z" fill="#F5F5F5"/>
<path d="M397.28 327.4H402.61V196.33H397.28V327.4Z" fill="#E6E6E6"/>
<path d="M373.46 327.4H378.79V196.33H373.46V327.4Z" fill="#F5F5F5"/>
<path d="M305.83 327.4H311.16V196.33H305.83V327.4Z" fill="#F5F5F5"/>
<path d="M65.3799 327.4H119.96V221.51H65.3799V327.4Z" fill="#E6E6E6"/>
<path d="M79.9501 327.399H65.3701V312.779H95.2301L79.9501 327.399Z" fill="#FAFAFA"/>
<path d="M214.18 327.4H268.76V221.51H214.18V327.4Z" fill="#E6E6E6"/>
<path d="M65.3801 322.359H226.91V221.499H65.3801V322.359Z" fill="#FAFAFA"/>
<path d="M212.33 327.399H226.9V312.779H197.05L212.33 327.399Z" fill="#FAFAFA"/>
<path d="M76.6802 284.33H215.6V259.09H76.6802V284.33Z" fill="#F0F0F0"/>
<path d="M76.6802 314.961H215.6V289.721H76.6802V314.961Z" fill="#F0F0F0"/>
<path d="M189.2 261.789H103.09C101.875 261.789 100.71 261.307 99.8515 260.448C98.9926 259.589 98.51 258.424 98.51 257.209V256.899H193.77V257.209C193.77 258.422 193.289 259.585 192.432 260.444C191.575 261.303 190.413 261.786 189.2 261.789Z" fill="#FAFAFA"/>
<path d="M76.6802 253.689H215.6V228.449H76.6802V253.689Z" fill="#F0F0F0"/>
<path d="M189.2 231.15H103.09C101.875 231.15 100.71 230.668 99.8515 229.809C98.9926 228.95 98.51 227.785 98.51 226.57V226.26H193.77V226.57C193.77 227.783 193.289 228.947 192.432 229.805C191.575 230.664 190.413 231.148 189.2 231.15Z" fill="#FAFAFA"/>
<path d="M189.2 292.43H103.09C101.875 292.43 100.71 291.947 99.8515 291.088C98.9926 290.229 98.51 289.064 98.51 287.85V287.54H193.77V287.85C193.77 289.063 193.289 290.226 192.432 291.085C191.575 291.943 190.413 292.427 189.2 292.43Z" fill="#FAFAFA"/>
<path d="M74.0701 119.061H211.85V28.8306H74.0701V119.061Z" fill="#E6E6E6"/>
<path d="M69.8701 119.061H209.89V28.8306H69.8701V119.061Z" fill="#F0F0F0"/>
<path d="M74.0701 136.76H211.85V119.05H74.0701V136.76Z" fill="#E6E6E6"/>
<path d="M62.8599 136.76H202.88V119.05H62.8599V136.76Z" fill="#F0F0F0"/>
<path d="M204 113.181V34.7207H75.75V113.181H204Z" fill="#FAFAFA"/>
<path d="M175.08 113.171L158.7 34.7207H133.14L149.52 113.171H175.08Z" fill="white"/>
<path d="M201.27 107.319C201.326 107.319 201.382 107.308 201.433 107.286C201.485 107.264 201.532 107.233 201.571 107.192C201.61 107.152 201.641 107.105 201.661 107.053C201.682 107.001 201.692 106.945 201.69 106.889V38.549C201.692 38.4935 201.682 38.4383 201.661 38.3867C201.64 38.3351 201.61 38.2883 201.57 38.249C201.531 38.2097 201.484 38.1788 201.433 38.1582C201.381 38.1376 201.326 38.1277 201.27 38.129C201.159 38.129 201.052 38.1733 200.973 38.252C200.894 38.3308 200.85 38.4376 200.85 38.549V106.889C200.849 106.945 200.859 107.001 200.879 107.053C200.9 107.105 200.93 107.152 200.97 107.192C201.009 107.233 201.056 107.264 201.107 107.286C201.159 107.308 201.214 107.319 201.27 107.319Z" fill="#F0F0F0"/>
<path d="M144.03 113.171L127.65 34.7207H117.68L134.06 113.171H144.03Z" fill="white"/>
<path d="M76.5 113.181V34.7207H75.75V113.181H76.5Z" fill="#E6E6E6"/>
<path opacity="0.6" d="M68.4702 43.59H206.25L206.79 37H69.0102L68.4702 43.59Z" fill="#EBEBEB"/>
<path opacity="0.6" d="M68.4702 47.3107H206.25L206.79 40.7207H69.0102L68.4702 47.3107Z" fill="#EBEBEB"/>
<path opacity="0.6" d="M68.4702 51.0194H206.25L206.79 44.4395H69.0102L68.4702 51.0194Z" fill="#EBEBEB"/>
<path opacity="0.6" d="M68.4702 54.7404H206.25L206.79 48.1504H69.0102L68.4702 54.7404Z" fill="#EBEBEB"/>
<path opacity="0.6" d="M68.4702 58.4491H206.25L206.79 51.8691H69.0102L68.4702 58.4491Z" fill="#EBEBEB"/>
<path opacity="0.6" d="M68.4702 62.1701H206.25L206.79 55.5801H69.0102L68.4702 62.1701Z" fill="#EBEBEB"/>
<path d="M96.0198 218.27H100.78V165.18H96.0198V218.27Z" fill="#F5F5F5"/>
<path d="M96.6201 218.24H97.9701V165.15H96.6201V218.24Z" fill="#FAFAFA"/>
<path d="M98.53 218.24H99.06V165.15H98.53V218.24Z" fill="#FAFAFA"/>
<path d="M116.03 221.51H80.7898C80.7898 220.332 81.2576 219.203 82.0902 218.37C82.9229 217.538 84.0522 217.07 85.2298 217.07H111.58C112.757 217.07 113.887 217.538 114.719 218.37C115.552 219.203 116.02 220.332 116.02 221.51H116.03Z" fill="#F0F0F0"/>
<path d="M89.84 198.141C90.2025 198.138 90.5494 197.993 90.8058 197.737C91.0622 197.48 91.2073 197.133 91.21 196.771V162.001C91.21 161.638 91.0656 161.289 90.8087 161.032C90.5518 160.775 90.2033 160.631 89.84 160.631C89.6592 160.63 89.48 160.664 89.3126 160.732C89.1452 160.801 88.993 160.901 88.8648 161.029C88.7365 161.156 88.6347 161.307 88.5652 161.474C88.4957 161.641 88.46 161.82 88.46 162.001V196.811C88.4729 197.168 88.624 197.506 88.8814 197.755C89.1388 198.003 89.4825 198.141 89.84 198.141Z" fill="#F0F0F0"/>
<path d="M77.0698 177.8H119.72L114.81 148H81.9798L77.0698 177.8Z" fill="#E0E0E0"/>
<path d="M250 372.56C357.082 372.56 443.89 367.492 443.89 361.24C443.89 354.988 357.082 349.92 250 349.92C142.917 349.92 56.1099 354.988 56.1099 361.24C56.1099 367.492 142.917 372.56 250 372.56Z" fill="#F5F5F5"/>
<path d="M104.119 147.36L103.121 147.432L104.45 165.874L105.447 165.802L104.119 147.36Z" fill="#091332"/>
<path d="M106.124 175.323L105.127 175.395L105.627 182.337L106.624 182.265L106.124 175.323Z" fill="#091332"/>
<path d="M337.71 260.161H123.55C121.166 260.118 118.882 259.194 117.139 257.567C115.396 255.94 114.317 253.726 114.11 251.351L103.59 105.221C103.492 104.094 103.631 102.959 103.999 101.889C104.366 100.819 104.954 99.8378 105.723 99.0088C106.493 98.1798 107.428 97.5212 108.468 97.0754C109.507 96.6296 110.629 96.4065 111.76 96.4205H325.92C328.302 96.4632 330.585 97.3856 332.327 99.0103C334.07 100.635 335.15 102.847 335.36 105.221L345.88 251.351C345.978 252.478 345.838 253.613 345.471 254.684C345.104 255.754 344.516 256.736 343.747 257.566C342.977 258.395 342.043 259.055 341.003 259.502C339.963 259.949 338.842 260.173 337.71 260.161Z" fill="#091332"/>
<path d="M338.53 260.161H124.37C121.986 260.118 119.702 259.194 117.959 257.567C116.216 255.94 115.137 253.726 114.93 251.351L104.41 105.221C104.312 104.094 104.451 102.959 104.819 101.889C105.186 100.819 105.774 99.8378 106.543 99.0088C107.313 98.1798 108.248 97.5212 109.287 97.0754C110.327 96.6296 111.449 96.4065 112.58 96.4205H326.74C329.122 96.4632 331.404 97.3856 333.147 99.0103C334.89 100.635 335.97 102.847 336.18 105.221L346.7 251.351C346.799 252.478 346.661 253.614 346.294 254.685C345.927 255.757 345.34 256.739 344.57 257.569C343.8 258.399 342.865 259.059 341.825 259.505C340.784 259.951 339.662 260.175 338.53 260.161Z" fill="#091332"/>
<path opacity="0.5" d="M338.53 260.161H124.37C121.986 260.118 119.702 259.194 117.959 257.567C116.216 255.94 115.137 253.726 114.93 251.351L104.41 105.221C104.312 104.094 104.451 102.959 104.819 101.889C105.186 100.819 105.774 99.8378 106.543 99.0088C107.313 98.1798 108.248 97.5212 109.287 97.0754C110.327 96.6296 111.449 96.4065 112.58 96.4205H326.74C329.122 96.4632 331.404 97.3856 333.147 99.0103C334.89 100.635 335.97 102.847 336.18 105.221L346.7 251.351C346.799 252.478 346.661 253.614 346.294 254.685C345.927 255.757 345.34 256.739 344.57 257.569C343.8 258.399 342.865 259.059 341.825 259.505C340.784 259.951 339.662 260.175 338.53 260.161Z" fill="white"/>
<path d="M327.06 100.82H112.9H112.18C106.71 101.27 107.83 109.6 113.35 109.6H327.87C333.4 109.6 333.32 101.27 327.78 100.82H327.06Z" fill="#091332"/>
<path d="M118.48 105.221C118.501 105.479 118.467 105.738 118.382 105.982C118.297 106.226 118.161 106.45 117.984 106.638C117.807 106.827 117.592 106.976 117.354 107.076C117.115 107.177 116.858 107.226 116.6 107.221C116.056 107.213 115.535 107.005 115.136 106.635C114.737 106.266 114.489 105.762 114.44 105.221C114.419 104.964 114.452 104.705 114.537 104.462C114.621 104.219 114.756 103.996 114.932 103.807C115.108 103.619 115.322 103.469 115.559 103.369C115.796 103.268 116.052 103.217 116.31 103.221C116.855 103.226 117.379 103.434 117.78 103.803C118.181 104.173 118.43 104.678 118.48 105.221Z" fill="#FAFAFA"/>
<path d="M125.35 105.221C125.371 105.479 125.338 105.738 125.252 105.982C125.167 106.226 125.031 106.45 124.854 106.638C124.677 106.827 124.462 106.976 124.224 107.076C123.985 107.177 123.728 107.226 123.47 107.221C122.926 107.213 122.405 107.005 122.006 106.635C121.607 106.266 121.359 105.762 121.31 105.221C121.289 104.964 121.322 104.705 121.407 104.462C121.492 104.219 121.626 103.996 121.802 103.807C121.978 103.619 122.192 103.469 122.429 103.369C122.666 103.268 122.922 103.217 123.18 103.221C123.725 103.226 124.249 103.434 124.65 103.803C125.051 104.173 125.3 104.678 125.35 105.221Z" fill="#FAFAFA"/>
<path d="M132.21 105.221C132.231 105.478 132.198 105.737 132.113 105.98C132.028 106.223 131.893 106.446 131.717 106.635C131.541 106.823 131.328 106.972 131.091 107.073C130.853 107.174 130.598 107.225 130.34 107.221C129.796 107.216 129.273 107.008 128.874 106.638C128.474 106.268 128.227 105.763 128.18 105.221C128.157 104.964 128.189 104.705 128.273 104.461C128.358 104.216 128.492 103.993 128.669 103.804C128.845 103.615 129.059 103.466 129.297 103.366C129.535 103.265 129.792 103.216 130.05 103.221C130.593 103.229 131.115 103.437 131.514 103.807C131.912 104.176 132.161 104.68 132.21 105.221Z" fill="#FAFAFA"/>
<path d="M332.85 245.581H128C127.135 245.567 126.306 245.231 125.674 244.64C125.042 244.049 124.652 243.244 124.58 242.381L115.93 122.211C115.892 121.799 115.941 121.383 116.076 120.991C116.21 120.599 116.427 120.241 116.71 119.939C116.994 119.637 117.339 119.4 117.721 119.241C118.104 119.083 118.516 119.008 118.93 119.021H323.83C324.695 119.033 325.524 119.366 326.156 119.956C326.788 120.546 327.178 121.349 327.25 122.211L335.91 242.381C335.948 242.799 335.895 243.22 335.757 243.615C335.618 244.011 335.397 244.373 335.107 244.676C334.817 244.979 334.466 245.217 334.076 245.373C333.687 245.529 333.269 245.6 332.85 245.581Z" fill="white"/>
<path d="M246.53 199.8L243.19 153.48L233.09 147.4H205.28L209.06 199.8H246.53Z" fill="white"/>
<path d="M246.53 200.28H209.06C208.936 200.283 208.816 200.238 208.724 200.154C208.633 200.07 208.578 199.954 208.57 199.83L204.8 147.43C204.795 147.364 204.804 147.298 204.827 147.236C204.849 147.174 204.884 147.118 204.93 147.07C204.974 147.021 205.028 146.981 205.088 146.954C205.149 146.926 205.214 146.911 205.28 146.91H233.09C233.178 146.913 233.264 146.937 233.34 146.98L243.44 153.06C243.508 153.099 243.565 153.154 243.607 153.22C243.649 153.287 243.674 153.362 243.68 153.44L247 199.76C247.007 199.828 246.999 199.896 246.976 199.96C246.954 200.024 246.918 200.082 246.87 200.13C246.827 200.177 246.774 200.214 246.716 200.24C246.657 200.266 246.594 200.28 246.53 200.28ZM209.53 199.28H246L242.72 153.73L233 147.88H205.8L209.53 199.28Z" fill="#091332"/>
<path d="M243.19 153.48L233.09 147.4L236.8 155.46L243.19 153.48Z" fill="#EBEBEB"/>
<path d="M236.8 155.94C236.707 155.94 236.617 155.913 236.539 155.864C236.462 155.814 236.399 155.743 236.36 155.66L232.65 147.6C232.606 147.505 232.594 147.4 232.614 147.298C232.633 147.195 232.684 147.102 232.76 147.03C232.839 146.962 232.938 146.921 233.042 146.912C233.146 146.903 233.25 146.927 233.34 146.98L243.44 153.06C243.521 153.109 243.587 153.18 243.63 153.265C243.672 153.35 243.689 153.446 243.68 153.54C243.667 153.632 243.628 153.719 243.568 153.789C243.508 153.86 243.429 153.913 243.34 153.94L236.94 155.94H236.8ZM234.19 148.62L237.06 154.87L242.06 153.34L234.19 148.62Z" fill="#091332"/>
<path d="M221 171C221.015 171.272 220.974 171.544 220.88 171.799C220.787 172.055 220.642 172.288 220.454 172.486C220.267 172.684 220.042 172.841 219.792 172.948C219.541 173.055 219.272 173.111 219 173.11C218.429 173.1 217.882 172.879 217.465 172.489C217.048 172.099 216.789 171.569 216.74 171C216.714 170.726 216.747 170.449 216.837 170.188C216.927 169.927 217.071 169.688 217.26 169.488C217.45 169.287 217.679 169.129 217.935 169.024C218.19 168.92 218.464 168.87 218.74 168.88C219.312 168.893 219.859 169.116 220.276 169.507C220.693 169.899 220.951 170.43 221 171Z" fill="#091332"/>
<path d="M234.7 171.001C234.724 171.275 234.69 171.551 234.6 171.81C234.509 172.07 234.365 172.307 234.175 172.507C233.986 172.706 233.757 172.863 233.503 172.967C233.248 173.072 232.975 173.12 232.7 173.111C232.128 173.101 231.58 172.88 231.161 172.49C230.742 172.101 230.482 171.571 230.43 171.001C230.413 170.728 230.453 170.455 230.546 170.199C230.639 169.942 230.784 169.707 230.971 169.508C231.159 169.31 231.385 169.152 231.636 169.044C231.887 168.936 232.157 168.88 232.43 168.881C233.004 168.889 233.555 169.11 233.974 169.502C234.394 169.894 234.653 170.429 234.7 171.001Z" fill="#091332"/>
<path d="M238.58 184.741C238.458 184.739 238.342 184.691 238.253 184.608C238.164 184.525 238.11 184.412 238.1 184.291C237.85 180.881 232.51 178.111 226.2 178.111C222.01 178.111 218.25 179.361 216.39 181.361C216.008 181.729 215.709 182.175 215.512 182.668C215.315 183.161 215.226 183.69 215.25 184.221C215.255 184.286 215.246 184.352 215.225 184.415C215.204 184.477 215.171 184.535 215.128 184.584C215.041 184.685 214.918 184.746 214.785 184.756C214.652 184.765 214.521 184.721 214.421 184.634C214.321 184.547 214.259 184.423 214.25 184.291C214.22 183.628 214.329 182.966 214.57 182.348C214.812 181.729 215.179 181.168 215.65 180.701C217.65 178.511 221.72 177.141 226.17 177.141C233.1 177.141 238.75 180.251 239.03 184.221C239.034 184.284 239.026 184.347 239.005 184.407C238.985 184.467 238.953 184.522 238.911 184.569C238.869 184.616 238.818 184.655 238.761 184.683C238.705 184.711 238.643 184.727 238.58 184.731V184.741Z" fill="#091332"/>
<path d="M213.17 166.72C213.048 166.717 212.931 166.671 212.84 166.59C212.749 166.498 212.698 166.374 212.698 166.245C212.698 166.116 212.749 165.992 212.84 165.9L214.97 163.61C215.061 163.522 215.183 163.473 215.31 163.473C215.437 163.473 215.558 163.522 215.65 163.61C215.695 163.654 215.73 163.707 215.754 163.766C215.779 163.824 215.791 163.887 215.791 163.95C215.791 164.013 215.779 164.076 215.754 164.134C215.73 164.192 215.695 164.245 215.65 164.29L213.52 166.58C213.474 166.626 213.419 166.662 213.359 166.686C213.299 166.71 213.235 166.721 213.17 166.72Z" fill="#091332"/>
<path d="M237.58 166.72C237.459 166.714 237.343 166.668 237.25 166.59L234.8 164.3C234.754 164.255 234.717 164.201 234.692 164.142C234.667 164.083 234.654 164.019 234.654 163.955C234.654 163.89 234.667 163.827 234.692 163.767C234.717 163.708 234.754 163.655 234.8 163.61C234.891 163.522 235.013 163.473 235.14 163.473C235.267 163.473 235.389 163.522 235.48 163.61L237.93 165.9C237.975 165.944 238.01 165.997 238.035 166.056C238.059 166.114 238.071 166.177 238.071 166.24C238.071 166.303 238.059 166.366 238.035 166.424C238.01 166.482 237.975 166.535 237.93 166.58C237.835 166.669 237.71 166.719 237.58 166.72Z" fill="#091332"/>
<path d="M202.26 210.15H204.52L207.78 214.49L207.47 210.15H209.75L210.31 217.99H208L204.76 213.68L205.07 217.99H202.79L202.26 210.15Z" fill="#091332"/>
<path d="M211.33 214.071C211.253 213.539 211.289 212.996 211.438 212.479C211.586 211.962 211.842 211.482 212.19 211.071C212.57 210.698 213.025 210.409 213.525 210.225C214.025 210.04 214.558 209.964 215.09 210.001C216.217 209.94 217.324 210.316 218.18 211.051C218.964 211.833 219.419 212.885 219.45 213.991C219.532 214.755 219.429 215.526 219.15 216.241C218.891 216.817 218.457 217.297 217.91 217.611C217.253 217.963 216.514 218.133 215.77 218.101C215.005 218.126 214.244 217.982 213.54 217.681C212.923 217.385 212.403 216.921 212.04 216.341C211.611 215.659 211.366 214.877 211.33 214.071ZM213.76 214.071C213.75 214.685 213.947 215.284 214.32 215.771C214.476 215.943 214.668 216.079 214.882 216.169C215.096 216.259 215.328 216.301 215.56 216.291C215.782 216.307 216.004 216.269 216.207 216.18C216.411 216.091 216.59 215.954 216.73 215.781C217.017 215.235 217.112 214.608 217 214.001C217.004 213.413 216.806 212.841 216.44 212.381C216.28 212.213 216.085 212.08 215.87 211.992C215.654 211.904 215.422 211.863 215.19 211.871C214.972 211.862 214.756 211.904 214.557 211.995C214.359 212.085 214.185 212.221 214.05 212.391C213.757 212.907 213.654 213.508 213.76 214.091V214.071Z" fill="#091332"/>
<path d="M224.15 210.151H227.75C228.343 210.132 228.935 210.23 229.49 210.441C229.929 210.625 230.32 210.909 230.63 211.271C230.945 211.638 231.186 212.062 231.34 212.521C231.502 213.013 231.603 213.524 231.64 214.041C231.717 214.694 231.666 215.357 231.49 215.991C231.352 216.43 231.108 216.828 230.78 217.151C230.506 217.441 230.161 217.654 229.78 217.771C229.315 217.906 228.834 217.98 228.35 217.991H224.76L224.15 210.151ZM226.7 211.931L227.01 216.211H227.6C227.965 216.235 228.33 216.177 228.67 216.041C228.894 215.911 229.059 215.699 229.13 215.451C229.244 215.007 229.272 214.545 229.21 214.091C229.229 213.481 229.042 212.882 228.68 212.391C228.494 212.223 228.276 212.095 228.038 212.016C227.801 211.937 227.549 211.908 227.3 211.931H226.7Z" fill="#091332"/>
<path d="M237.45 216.69H234.7L234.41 217.99H231.94L234.32 210.15H237L240.51 217.99H237.97L237.45 216.69ZM236.82 215L235.76 212.18L235.1 215H236.82Z" fill="#091332"/>
<path d="M239.37 210.15H246.73L246.87 212.09H244.4L244.82 217.99H242.4L241.98 212.09H239.51L239.37 210.15Z" fill="#091332"/>
<path d="M252.37 216.69H249.62L249.33 217.99H246.86L249.24 210.15H251.88L255.38 217.99H252.85L252.37 216.69ZM251.74 215L250.67 212.18L250 215H251.74Z" fill="#091332"/>
<path d="M353.69 118.08C354.58 117.63 355.69 117.08 356.63 116.51C357.57 115.94 358.63 115.39 359.63 114.79C361.58 113.58 363.56 112.39 365.43 111.07C369.186 108.5 372.706 105.602 375.95 102.41C376.36 102.03 376.72 101.61 377.11 101.2L377.68 100.59L377.96 100.29L378.1 100.13C377.96 100.4 378.1 100.32 378.1 100.06C378.188 99.703 378.238 99.3376 378.25 98.9701C378.227 96.8438 377.982 94.7257 377.52 92.6501C376.63 88.1701 375.28 83.5501 373.95 79.0301L377.83 77.3301C380.279 81.6667 382.324 86.2192 383.94 90.9301C384.848 93.4759 385.426 96.1275 385.66 98.8201C385.721 99.6572 385.694 100.499 385.58 101.33C385.432 102.506 385.014 103.632 384.36 104.62L384.19 104.85L384.06 105.01L383.91 105.2L383.6 105.58L382.98 106.33C382.57 106.82 382.17 107.33 381.73 107.8C378.31 111.595 374.495 115.014 370.35 118C368.35 119.48 366.23 120.9 364.06 122.19C362.99 122.84 361.9 123.46 360.79 124.07C359.68 124.68 358.6 125.24 357.32 125.84L353.69 118.08Z" fill="#FFB573"/>
<path d="M344.79 353.179C345.539 353.161 346.283 353.06 347.01 352.879C347.047 352.868 347.08 352.847 347.106 352.819C347.133 352.791 347.151 352.757 347.16 352.719C347.165 352.681 347.159 352.642 347.143 352.607C347.127 352.571 347.102 352.541 347.07 352.519C346.78 352.329 344.24 350.689 343.26 351.129C343.152 351.18 343.058 351.259 342.99 351.357C342.921 351.455 342.88 351.57 342.87 351.689C342.831 351.878 342.841 352.073 342.899 352.257C342.956 352.441 343.06 352.607 343.2 352.739C343.66 353.073 344.224 353.23 344.79 353.179ZM346.44 352.599C344.99 352.889 343.89 352.839 343.44 352.449C343.35 352.357 343.285 352.244 343.25 352.12C343.215 351.996 343.211 351.865 343.24 351.739C343.244 351.686 343.261 351.635 343.291 351.591C343.321 351.547 343.362 351.512 343.41 351.489C343.94 351.259 345.41 351.999 346.44 352.599Z" fill="#091332"/>
<path d="M347 352.88H347.1C347.129 352.862 347.153 352.837 347.171 352.807C347.188 352.778 347.198 352.744 347.2 352.71C347.2 352.6 347.2 350.19 346.28 349.39C346.17 349.284 346.037 349.204 345.891 349.157C345.745 349.111 345.591 349.098 345.44 349.12C345.282 349.121 345.129 349.177 345.008 349.277C344.886 349.377 344.802 349.516 344.77 349.67C344.58 350.67 346.1 352.42 346.9 352.88C346.932 352.889 346.967 352.889 347 352.88ZM345.57 349.49C345.732 349.491 345.889 349.551 346.01 349.66C346.537 350.438 346.81 351.36 346.79 352.3C345.99 351.66 345.04 350.3 345.16 349.73C345.16 349.64 345.23 349.52 345.48 349.49H345.57Z" fill="#091332"/>
<path d="M346.22 93.0703C345.22 98.0703 343.22 108.07 346.67 111.42C346.67 111.42 345.31 116.42 336.08 116.42C325.92 116.42 331.23 111.42 331.23 111.42C336.77 110.1 336.62 105.99 335.66 102.12L346.22 93.0703Z" fill="#FFB573"/>
<path d="M329.28 113.419C327.69 113.639 329.05 109.509 329.69 109.079C331.19 108.079 350.55 106.689 350.42 109.079C350.34 110.079 349.86 112.079 349.02 112.739C348.18 113.399 343.2 111.339 329.28 113.419Z" fill="#263238"/>
<path d="M332.44 111.999C331.17 112.429 331.29 108.269 331.72 107.769C332.72 106.609 348.39 102.589 348.85 104.859C349.03 105.859 349.12 107.859 348.58 108.569C348.04 109.279 343.44 108.109 332.44 111.999Z" fill="#263238"/>
<path d="M326.61 84.1084C326.547 84.1112 326.484 84.099 326.427 84.073C326.37 84.0469 326.319 84.0077 326.28 83.9585C325.975 83.5649 325.581 83.2486 325.131 83.035C324.682 82.8213 324.188 82.7163 323.69 82.7284C323.638 82.7354 323.585 82.7318 323.534 82.7178C323.484 82.7038 323.436 82.6798 323.395 82.6471C323.354 82.6144 323.32 82.5738 323.295 82.5276C323.27 82.4815 323.255 82.4307 323.25 82.3784C323.241 82.2754 323.273 82.1731 323.338 82.093C323.404 82.0128 323.497 81.961 323.6 81.9484C324.229 81.9163 324.857 82.0369 325.43 82.2998C326.003 82.5627 326.504 82.9602 326.89 83.4585C326.957 83.5396 326.989 83.6439 326.98 83.7487C326.971 83.8535 326.92 83.9505 326.84 84.0184C326.772 84.0672 326.693 84.0982 326.61 84.1084Z" fill="#263238"/>
<path d="M324.67 89C324.216 90.5953 323.543 92.1199 322.67 93.53C323.037 93.7409 323.445 93.8689 323.867 93.9052C324.288 93.9415 324.712 93.8851 325.11 93.74L324.67 89Z" fill="#FF5652"/>
<path d="M325.16 87.7887C325.23 88.4587 324.92 89.0387 324.48 89.0787C324.04 89.1187 323.63 88.6187 323.57 87.9387C323.51 87.2587 323.81 86.6887 324.24 86.6487C324.67 86.6087 325.09 87.1087 325.16 87.7887Z" fill="#263238"/>
<path d="M324.44 86.6694L322.78 86.3594C322.78 86.3594 323.73 87.5394 324.44 86.6694Z" fill="#263238"/>
<path d="M356.7 352.689H348.32L348.98 333.289H357.36L356.7 352.689Z" fill="#FFB573"/>
<path d="M347.66 351.719H357.07C357.232 351.715 357.39 351.771 357.513 351.876C357.637 351.981 357.718 352.128 357.74 352.289L358.81 359.729C358.831 359.917 358.812 360.108 358.754 360.288C358.696 360.468 358.601 360.634 358.474 360.775C358.348 360.916 358.193 361.028 358.02 361.105C357.846 361.181 357.659 361.22 357.47 361.219C354.19 361.169 352.61 360.969 348.47 360.969C345.92 360.969 342.2 361.239 338.69 361.239C335.18 361.239 334.98 357.759 336.45 357.449C343.01 356.029 344.05 354.089 346.26 352.229C346.653 351.902 347.148 351.722 347.66 351.719Z" fill="#263238"/>
<g opacity="0.2">
<path d="M357.36 333.289H348.98L348.64 343.289H357.02L357.36 333.289Z" fill="black"/>
</g>
<path d="M323.37 123C318.242 121.006 313.219 118.754 308.32 116.25C303.26 113.778 298.439 110.842 293.92 107.48C292.713 106.534 291.57 105.509 290.5 104.41C290.22 104.11 289.94 103.83 289.67 103.48C289.353 103.123 289.059 102.745 288.79 102.35C288.052 101.276 287.592 100.036 287.45 98.7402C287.34 97.5121 287.507 96.2749 287.94 95.1202C288.287 94.1921 288.761 93.317 289.35 92.5202C290.316 91.1993 291.456 90.0152 292.74 89.0002C295.006 87.196 297.452 85.631 300.04 84.3302C301.28 83.6702 302.54 83.0802 303.82 82.5302C305.1 81.9802 306.36 81.4602 307.73 80.9902L309.5 84.8402C305.14 87.5902 300.62 90.6202 297.3 94.0002C296.557 94.7531 295.903 95.5885 295.35 96.4902C294.87 97.2802 294.88 97.8702 294.96 97.8202C295.04 97.7702 294.96 97.8202 295.1 97.9202L295.5 98.3502C295.65 98.5302 295.86 98.7102 296.05 98.9002C296.897 99.6798 297.796 100.401 298.74 101.06C300.804 102.522 302.955 103.858 305.18 105.06C307.43 106.32 309.75 107.51 312.11 108.65C316.83 110.91 321.71 113.08 326.5 115.06L323.37 123Z" fill="#FFB573"/>
<path d="M312 82.15L313.38 79.15L307.06 77C307.06 77 305.06 82.91 307.43 85.63C308.421 85.4741 309.357 85.0744 310.154 84.4669C310.952 83.8595 311.586 83.0633 312 82.15Z" fill="#FFB573"/>
<path d="M313.35 72.6592L308.32 71.1992L307.06 76.9592L313.35 79.1492V72.6592Z" fill="#FFB573"/>
<path d="M378.35 79.4395L379.08 72.4395L372.6 73.9995C372.6 73.9995 372.5 80.5794 375.93 81.6194L378.35 79.4395Z" fill="#FFB573"/>
<path d="M375.96 67.5098L371.73 69.4798L372.6 73.9498L379.08 72.4198L375.96 67.5098Z" fill="#FFB573"/>
<path d="M347.54 83.2485C347.85 91.5585 348.15 95.0685 344.4 99.7185C338.75 106.719 328.48 105.269 325.7 97.2185C323.2 89.9785 323.12 77.6085 330.88 73.5285C332.586 72.6214 334.496 72.1653 336.428 72.2034C338.359 72.2415 340.25 72.7726 341.918 73.7463C343.587 74.7201 344.98 76.1041 345.964 77.7671C346.948 79.4301 347.49 81.3169 347.54 83.2485Z" fill="#FFB573"/>
<path d="M343.92 99.7098C352.08 96.1798 357.44 88.7098 355.18 77.1298C353.01 66.0198 345.51 64.9198 342.41 67.2198C339.31 69.5198 331.58 66.0898 326.94 69.9898C318.94 76.7598 326.5 83.9898 330.46 88.3598C332.82 93.2198 335.92 103.16 343.92 99.7098Z" fill="#263238"/>
<path d="M340.53 75.1387C341.525 76.4156 342.873 77.3731 344.406 77.893C345.94 78.4129 347.592 78.4723 349.158 78.0641C350.725 77.6558 352.138 76.7977 353.223 75.5957C354.307 74.3936 355.016 72.9003 355.262 71.2999C355.508 69.6996 355.279 68.0623 354.605 66.5903C353.931 65.1182 352.841 63.8758 351.469 63.0163C350.096 62.1569 348.503 61.718 346.884 61.754C345.265 61.79 343.693 62.2991 342.36 63.2187C340.537 64.5571 339.32 66.5646 338.977 68.7998C338.634 71.0351 339.193 73.3151 340.53 75.1387Z" fill="#091332"/>
<path d="M342.65 67.9993C341.48 61.2993 347.81 56.1393 356.29 58.6293C364.77 61.1193 360.29 68.6293 358.54 74.6293C356.79 80.6293 361.37 86.3493 363.27 81.7793C365.17 77.2093 361.97 75.7793 361.97 75.7793C361.97 75.7793 370.97 78.1093 362.61 88.2593C354.25 98.4093 346.68 87.1993 348.73 80.5893C350.39 75.2793 343.76 74.3293 342.65 67.9993Z" fill="#263238"/>
<path d="M334.18 70.5296C330.31 68.5296 323.76 66.8796 320.03 73.1596C318.27 76.1596 318.95 80.1596 318.95 80.1596L330.34 80.9096L334.18 70.5296Z" fill="#263238"/>
<path d="M317.61 78.1787C317.543 78.1736 317.48 78.1426 317.435 78.0922C317.391 78.0419 317.367 77.9761 317.37 77.9087C317.37 77.7387 317.66 73.7187 320.09 71.1987C325.96 65.0987 332.84 70.1987 334.8 71.8487C334.842 71.8934 334.866 71.9519 334.868 72.0133C334.87 72.0747 334.849 72.1346 334.809 72.1816C334.77 72.2285 334.714 72.2593 334.654 72.268C334.593 72.2767 334.531 72.2627 334.48 72.2287C332.59 70.6087 326.01 65.7587 320.48 71.5387C318.18 73.9287 317.9 77.8987 317.9 77.9387C317.899 77.9744 317.89 78.0094 317.875 78.0415C317.859 78.0735 317.837 78.1019 317.809 78.1246C317.782 78.1473 317.75 78.1639 317.715 78.1732C317.681 78.1826 317.645 78.1845 317.61 78.1787Z" fill="#263238"/>
<path d="M331.85 87.9994C331.805 89.5726 331.223 91.083 330.2 92.2794C328.82 93.8994 327.2 93.0994 326.87 91.2794C326.54 89.6694 326.87 86.8794 328.61 85.9094C330.35 84.9394 331.87 86.1794 331.85 87.9994Z" fill="#FFB573"/>
<path d="M330.05 164.119C330.05 164.119 330.59 222.269 335.63 254.669C339.71 280.839 347.24 341.359 347.24 341.359H358.67C358.67 341.359 359.78 282.929 357.67 257.049C352.44 191.549 365.95 179.299 355.05 164.119H330.05Z" fill="#263238"/>
<path opacity="0.1" d="M330.05 164.119C330.05 164.119 330.59 222.269 335.63 254.669C339.71 280.839 347.24 341.359 347.24 341.359H358.67C358.67 341.359 359.78 282.929 357.67 257.049C352.44 191.549 365.95 179.299 355.05 164.119H330.05Z" fill="white"/>
<path opacity="0.3" d="M336.06 190.499C340.06 208.049 336.87 235.689 334.68 247.859C332.36 229.379 331.19 205.429 330.61 187.859C332.68 184.519 334.64 184.299 336.06 190.499Z" fill="black"/>
<path d="M345.68 341.579H360.23L360.99 336.479L345.6 335.959L345.68 341.579Z" fill="#091332"/>
<path d="M349.83 115C351.2 112.28 358.56 110.57 362.58 110.58L365.58 123.94C365.58 123.94 357.58 135.83 354.24 134.57C350.31 133.12 346.9 120.87 349.83 115Z" fill="#091332"/>
<path opacity="0.4" d="M349.83 115C351.2 112.28 358.56 110.57 362.58 110.58L365.58 123.94C365.58 123.94 357.58 135.83 354.24 134.57C350.31 133.12 346.9 120.87 349.83 115Z" fill="black"/>
<path d="M341.35 338.31C341.367 338.281 341.375 338.248 341.375 338.215C341.375 338.182 341.367 338.149 341.35 338.12C341.331 338.082 341.301 338.05 341.263 338.031C341.225 338.011 341.182 338.004 341.14 338.01C340.72 338.08 337.02 338.66 336.52 339.72C336.466 339.817 336.438 339.925 336.438 340.035C336.438 340.145 336.466 340.254 336.52 340.35C336.606 340.508 336.729 340.643 336.879 340.742C337.029 340.842 337.201 340.903 337.38 340.92C338.59 341.04 340.38 339.36 341.28 338.34L341.35 338.31ZM336.91 339.85C337.25 339.29 339.17 338.77 340.63 338.5C339.31 339.84 338.15 340.59 337.47 340.5C337.352 340.488 337.24 340.447 337.142 340.381C337.044 340.315 336.964 340.225 336.91 340.12C336.888 340.082 336.876 340.039 336.876 339.995C336.876 339.951 336.888 339.908 336.91 339.87C336.91 339.87 336.9 339.86 336.91 339.85Z" fill="#091332"/>
<path d="M341.35 338.309C341.366 338.28 341.375 338.248 341.375 338.214C341.375 338.181 341.366 338.148 341.35 338.119C341.29 338.049 339.81 336.339 338.44 336.249C338.242 336.233 338.044 336.257 337.856 336.321C337.669 336.384 337.496 336.486 337.35 336.619C336.94 336.989 336.98 337.309 337.08 337.509C337.51 338.369 340.17 338.669 341.24 338.439C341.267 338.428 341.292 338.411 341.311 338.388C341.33 338.365 341.344 338.338 341.35 338.309ZM337.44 337.049C337.484 336.981 337.538 336.921 337.6 336.869C337.704 336.77 337.829 336.694 337.965 336.648C338.102 336.601 338.246 336.585 338.39 336.599C339.32 336.828 340.156 337.342 340.78 338.069C339.59 338.169 337.67 337.809 337.41 337.289C337.393 337.25 337.387 337.207 337.392 337.165C337.398 337.123 337.414 337.083 337.44 337.049Z" fill="#091332"/>
<path d="M350.08 334.76L342.42 338.17L339.01 331.06L334.55 321.76L334.02 320.68L341.68 317.27L342.27 318.49L346.59 327.5L350.08 334.76Z" fill="#FFB573"/>
<path opacity="0.2" d="M346.59 327.5L339.01 331.06L334.55 321.76L342.27 318.49L346.59 327.5Z" fill="black"/>
<path d="M321.07 164.119C321.07 164.119 296.6 224.999 303.23 253.599C309.23 279.489 335.73 328.519 335.73 328.519L346 323.379C346 323.379 329.61 264.189 327.84 251.329C324.38 226.329 346.61 190.999 346.61 164.119H321.07Z" fill="#263238"/>
<path opacity="0.1" d="M321.07 164.119C321.07 164.119 296.6 224.999 303.23 253.599C309.23 279.489 335.73 328.519 335.73 328.519L346 323.379C346 323.379 329.61 264.189 327.84 251.329C324.38 226.329 346.61 190.999 346.61 164.119H321.07Z" fill="white"/>
<path d="M341.06 337.1L348.66 331.57C348.788 331.47 348.949 331.42 349.111 331.431C349.274 331.442 349.426 331.513 349.54 331.63L354.79 337.02C354.917 337.16 355.013 337.326 355.072 337.507C355.131 337.687 355.151 337.878 355.132 338.067C355.112 338.255 355.052 338.438 354.957 338.602C354.862 338.766 354.734 338.909 354.58 339.02C351.89 340.9 350.5 341.68 347.16 344.11C345.1 345.61 341 348.92 338.16 350.99C335.32 353.06 333.16 350.36 334.16 349.25C338.64 344.25 339.58 341.15 340.28 338.34C340.388 337.849 340.664 337.41 341.06 337.1Z" fill="#263238"/>
<path d="M335.07 330.69L348.3 324.64L346.61 319.25L332.44 325.71L335.07 330.69Z" fill="#091332"/>
<path d="M327.56 114.359C326.47 111.519 316.91 108.359 312.11 107.359L310 123.079C310 123.079 317.84 134.339 321.27 133.409C325.33 132.309 329.92 120.449 327.56 114.359Z" fill="#091332"/>
<path opacity="0.4" d="M327.56 114.359C326.47 111.519 316.91 108.359 312.11 107.359L310 123.079C310 123.079 317.84 134.339 321.27 133.409C325.33 132.309 329.92 120.449 327.56 114.359Z" fill="black"/>
<path d="M317.07 113.568C317.07 113.568 313.07 114.968 321.07 164.118H355.07C354.5 150.278 354.48 141.738 361.07 113.318C356.306 112.335 351.476 111.7 346.62 111.418C341.48 111.048 336.32 111.048 331.18 111.418C324.59 111.998 317.07 113.568 317.07 113.568Z" fill="#091332"/>
<path opacity="0.4" d="M317.07 113.568C317.07 113.568 313.07 114.968 321.07 164.118H355.07C354.5 150.278 354.48 141.738 361.07 113.318C356.306 112.335 351.476 111.7 346.62 111.418C341.48 111.048 336.32 111.048 331.18 111.418C324.59 111.998 317.07 113.568 317.07 113.568Z" fill="black"/>
<path d="M355.6 162.129L357.13 165.129C357.25 165.369 356.97 165.609 356.58 165.609H320.9C320.59 165.609 320.34 165.459 320.32 165.259L320.01 162.259C320.01 162.049 320.26 161.869 320.59 161.869H355C355.114 161.851 355.231 161.866 355.338 161.912C355.444 161.958 355.535 162.033 355.6 162.129Z" fill="#091332"/>
<path opacity="0.3" d="M355.6 162.129L357.13 165.129C357.25 165.369 356.97 165.609 356.58 165.609H320.9C320.59 165.609 320.34 165.459 320.32 165.259L320.01 162.259C320.01 162.049 320.26 161.869 320.59 161.869H355C355.114 161.851 355.231 161.866 355.338 161.912C355.444 161.958 355.535 162.033 355.6 162.129Z" fill="white"/>
<path d="M351 166H351.92C352.11 166 352.25 165.9 352.23 165.79L351.8 161.79C351.8 161.67 351.63 161.58 351.45 161.58H350.52C350.34 161.58 350.2 161.67 350.21 161.79L350.64 165.79C350.63 165.88 350.79 166 351 166Z" fill="#263238"/>
<path d="M328.61 166H329.53C329.71 166 329.85 165.9 329.84 165.79L329.41 161.79C329.41 161.67 329.24 161.58 329.05 161.58H328.13C327.94 161.58 327.81 161.67 327.82 161.79L328.25 165.79C328.26 165.88 328.42 166 328.61 166Z" fill="#263238"/>
</g>
<defs>
<clipPath id="clip0_250_21">
<rect width="500" height="373" fill="white"/>
</clipPath>
</defs>
</svg>
